<svg xmlns="http://www.w3.org/2000/svg" xmlns:xlink="http://www.w3.org/1999/xlink" width="500" zoomAndPan="magnify" viewBox="0 0 375 374.999991" height="500" preserveAspectRatio="xMidYMid meet" version="1.0"><defs><g/><clipPath id="e4847deafd"><path d="M 65.816406 65.816406 L 309.183594 65.816406 L 309.183594 309.183594 L 65.816406 309.183594 Z M 65.816406 65.816406 " clip-rule="nonzero"/></clipPath><clipPath id="e8344366b1"><path d="M 187.5 65.816406 C 120.296875 65.816406 65.816406 120.296875 65.816406 187.5 C 65.816406 254.703125 120.296875 309.183594 187.5 309.183594 C 254.703125 309.183594 309.183594 254.703125 309.183594 187.5 C 309.183594 120.296875 254.703125 65.816406 187.5 65.816406 Z M 187.5 65.816406 " clip-rule="nonzero"/></clipPath><clipPath id="70db83cb46"><path d="M 0.816406 0.816406 L 244.183594 0.816406 L 244.183594 244.183594 L 0.816406 244.183594 Z M 0.816406 0.816406 " clip-rule="nonzero"/></clipPath><clipPath id="4b9b935e31"><path d="M 122.5 0.816406 C 55.296875 0.816406 0.816406 55.296875 0.816406 122.5 C 0.816406 189.703125 55.296875 244.183594 122.5 244.183594 C 189.703125 244.183594 244.183594 189.703125 244.183594 122.5 C 244.183594 55.296875 189.703125 0.816406 122.5 0.816406 Z M 122.5 0.816406 " clip-rule="nonzero"/></clipPath><clipPath id="e5b59c9fff"><rect x="0" width="245" y="0" height="245"/></clipPath><clipPath id="8a3b4936e2"><path d="M 65.816406 65.816406 L 308.816406 65.816406 L 308.816406 308.816406 L 65.816406 308.816406 Z M 65.816406 65.816406 " clip-rule="nonzero"/></clipPath><clipPath id="1d840f04ba"><path d="M 187.5 65.816406 C 120.296875 65.816406 65.816406 120.296875 65.816406 187.5 C 65.816406 254.703125 120.296875 309.179688 187.5 309.179688 C 254.703125 309.179688 309.179688 254.703125 309.179688 187.5 C 309.179688 120.296875 254.703125 65.816406 187.5 65.816406 Z M 187.5 65.816406 " clip-rule="nonzero"/></clipPath><clipPath id="c7a55089f2"><path d="M 101.171875 101.171875 L 273.828125 101.171875 L 273.828125 273.828125 L 101.171875 273.828125 Z M 101.171875 101.171875 " clip-rule="nonzero"/></clipPath><clipPath id="23c6b3a627"><path d="M 187.5 101.171875 C 139.820312 101.171875 101.171875 139.820312 101.171875 187.5 C 101.171875 235.179688 139.820312 273.828125 187.5 273.828125 C 235.179688 273.828125 273.828125 235.179688 273.828125 187.5 C 273.828125 139.820312 235.179688 101.171875 187.5 101.171875 Z M 187.5 101.171875 " clip-rule="nonzero"/></clipPath><clipPath id="5a2a4a58f6"><path d="M 0.171875 0.171875 L 172.828125 0.171875 L 172.828125 172.828125 L 0.171875 172.828125 Z M 0.171875 0.171875 " clip-rule="nonzero"/></clipPath><clipPath id="4bcb53459e"><path d="M 86.5 0.171875 C 38.820312 0.171875 0.171875 38.820312 0.171875 86.5 C 0.171875 134.179688 38.820312 172.828125 86.5 172.828125 C 134.179688 172.828125 172.828125 134.179688 172.828125 86.5 C 172.828125 38.820312 134.179688 0.171875 86.5 0.171875 Z M 86.5 0.171875 " clip-rule="nonzero"/></clipPath><clipPath id="067ae7e55a"><rect x="0" width="173" y="0" height="173"/></clipPath><clipPath id="6f953c6656"><path d="M 101.171875 101.171875 L 273.671875 101.171875 L 273.671875 273.671875 L 101.171875 273.671875 Z M 101.171875 101.171875 " clip-rule="nonzero"/></clipPath><clipPath id="38d8555b68"><path d="M 187.496094 101.171875 C 139.820312 101.171875 101.171875 139.820312 101.171875 187.496094 C 101.171875 235.171875 139.820312 273.824219 187.496094 273.824219 C 235.171875 273.824219 273.824219 235.171875 273.824219 187.496094 C 273.824219 139.820312 235.171875 101.171875 187.496094 101.171875 Z M 187.496094 101.171875 " clip-rule="nonzero"/></clipPath><clipPath id="da317da46a"><path d="M 254 182 L 297 182 L 297 263 L 254 263 Z M 254 182 " clip-rule="nonzero"/></clipPath><clipPath id="6ea1bc917e"><path d="M 257.796875 181.027344 L 296.761719 182.738281 L 293.175781 264.410156 L 254.214844 262.699219 Z M 257.796875 181.027344 " clip-rule="nonzero"/></clipPath><clipPath id="2f0618dd47"><path d="M 257.796875 181.027344 L 296.761719 182.738281 L 293.175781 264.410156 L 254.214844 262.699219 Z M 257.796875 181.027344 " clip-rule="nonzero"/></clipPath><clipPath id="26e03be416"><path d="M 257.796875 181.027344 L 296.761719 182.738281 L 293.175781 264.410156 L 254.214844 262.699219 Z M 257.796875 181.027344 " clip-rule="nonzero"/></clipPath><clipPath id="96a93d616b"><path d="M 77 180 L 121 180 L 121 265 L 77 265 Z M 77 180 " clip-rule="nonzero"/></clipPath><clipPath id="06d6ebcded"><path d="M 77.605469 182.847656 L 116.558594 180.949219 L 120.539062 262.601562 L 81.585938 264.503906 Z M 77.605469 182.847656 " clip-rule="nonzero"/></clipPath><clipPath id="1c42af66db"><path d="M 1 2 L 43.71875 2 L 43.71875 83 L 1 83 Z M 1 2 " clip-rule="nonzero"/></clipPath><clipPath id="b49c40549d"><path d="M 0.605469 2.847656 L 39.558594 0.949219 L 43.539062 82.601562 L 4.585938 84.503906 Z M 0.605469 2.847656 " clip-rule="nonzero"/></clipPath><clipPath id="556e7e3b16"><path d="M 39.699219 0.941406 L 0.746094 2.84375 L 4.726562 84.496094 L 43.679688 82.59375 Z M 39.699219 0.941406 " clip-rule="nonzero"/></clipPath><clipPath id="028545928c"><path d="M 39.699219 0.941406 L 0.746094 2.84375 L 4.726562 84.496094 L 43.679688 82.59375 Z M 39.699219 0.941406 " clip-rule="nonzero"/></clipPath><clipPath id="0c08563617"><rect x="0" width="44" y="0" height="85"/></clipPath><clipPath id="d1d31135ad"><path d="M 139.140625 133 L 186 133 L 186 169 L 139.140625 169 Z M 139.140625 133 " clip-rule="nonzero"/></clipPath><clipPath id="3b116357b7"><path d="M 189 124 L 235.890625 124 L 235.890625 158 L 189 158 Z M 189 124 " clip-rule="nonzero"/></clipPath></defs><g clip-path="url(#e4847deafd)"><g clip-path="url(#e8344366b1)"><g transform="matrix(1, 0, 0, 1, 65, 65)"><g clip-path="url(#e5b59c9fff)"><g clip-path="url(#70db83cb46)"><g clip-path="url(#4b9b935e31)"><path fill="#fcfbf9" d="M 0.816406 0.816406 L 244.183594 0.816406 L 244.183594 244.183594 L 0.816406 244.183594 Z M 0.816406 0.816406 " fill-opacity="1" fill-rule="nonzero"/></g></g></g></g></g></g><g clip-path="url(#8a3b4936e2)"><g clip-path="url(#1d840f04ba)"><path stroke-linecap="butt" transform="matrix(0.75, 0, 0, 0.75, 65.817979, 65.817975)" fill="none" stroke-linejoin="miter" d="M 162.242705 -0.0020915 C 72.638532 -0.0020915 -0.0020975 72.638538 -0.0020975 162.242711 C -0.0020975 251.846883 72.638532 324.482305 162.242705 324.482305 C 251.846877 324.482305 324.482299 251.846883 324.482299 162.242711 C 324.482299 72.638538 251.846877 -0.0020915 162.242705 -0.0020915 Z M 162.242705 -0.0020915 " stroke="#000000" stroke-width="2" stroke-opacity="1" stroke-miterlimit="4"/></g></g><g clip-path="url(#c7a55089f2)"><g clip-path="url(#23c6b3a627)"><g transform="matrix(1, 0, 0, 1, 101, 101)"><g clip-path="url(#067ae7e55a)"><g clip-path="url(#5a2a4a58f6)"><g clip-path="url(#4bcb53459e)"><path fill="#f8dae2" d="M 0.171875 0.171875 L 172.828125 0.171875 L 172.828125 172.828125 L 0.171875 172.828125 Z M 0.171875 0.171875 " fill-opacity="1" fill-rule="nonzero"/></g></g></g></g></g></g><g clip-path="url(#6f953c6656)"><g clip-path="url(#38d8555b68)"><path stroke-linecap="butt" transform="matrix(0.75, 0, 0, 0.75, 101.170515, 101.17051)" fill="none" stroke-linejoin="miter" d="M 115.10078 0.00181979 C 51.533067 0.00181979 0.00181379 51.533073 0.00181379 115.100786 C 0.00181379 178.668498 51.533067 230.20496 115.10078 230.20496 C 178.668492 230.20496 230.204954 178.668498 230.204954 115.100786 C 230.204954 51.533073 178.668492 0.00181979 115.10078 0.00181979 Z M 115.10078 0.00181979 " stroke="#000000" stroke-width="2" stroke-opacity="1" stroke-miterlimit="4"/></g></g><g clip-path="url(#da317da46a)"><g clip-path="url(#6ea1bc917e)"><g clip-path="url(#2f0618dd47)"><g clip-path="url(#26e03be416)"><path fill="#000000" d="M 273.023438 246.675781 C 273.410156 246.582031 273.75 246.375 274.078125 246.167969 C 274.550781 245.855469 275.023438 245.542969 275.484375 245.195312 C 276.429688 244.507812 277.367188 243.769531 278.152344 242.867188 C 278.382812 242.609375 278.632812 242.367188 278.882812 242.105469 C 279.429688 241.542969 279.902344 240.914062 280.339844 240.25 C 280.664062 239.769531 280.875 239.257812 281.011719 238.691406 C 281.128906 238.171875 281.214844 237.667969 281.253906 237.128906 C 281.339844 235.941406 281.53125 234.792969 281.882812 233.648438 C 282.160156 232.722656 282.375 231.78125 282.59375 230.851562 C 282.6875 230.460938 282.671875 230.078125 282.46875 229.703125 C 282.410156 229.589844 282.367188 229.460938 282.359375 229.332031 C 282.347656 229.207031 282.355469 229.0625 282.390625 228.953125 C 282.425781 228.828125 282.496094 228.71875 282.578125 228.613281 C 282.746094 228.398438 282.851562 228.164062 282.910156 227.914062 C 283.101562 227.191406 283.195312 226.449219 283.152344 225.699219 C 283.144531 225.476562 283.15625 225.253906 283.148438 225.046875 C 283.144531 224.398438 283.15625 223.730469 283.265625 223.085938 C 283.308594 222.785156 283.324219 222.46875 283.335938 222.167969 C 283.347656 221.546875 283.390625 220.945312 283.480469 220.332031 C 283.523438 220.078125 283.550781 219.808594 283.5625 219.539062 C 283.574219 218.921875 283.726562 218.324219 283.894531 217.746094 C 283.988281 217.445312 284.078125 217.164062 284.1875 216.867188 C 284.207031 216.789062 284.242188 216.695312 284.246094 216.617188 C 284.265625 216.140625 284.320312 215.652344 284.183594 215.183594 C 284.113281 214.929688 284.0625 214.671875 283.976562 214.429688 C 283.753906 213.800781 283.6875 213.144531 283.570312 212.507812 C 283.480469 212.011719 283.691406 211.558594 284.027344 211.175781 C 284.207031 210.976562 284.464844 210.910156 284.734375 210.890625 C 285.148438 210.84375 285.535156 211.082031 285.679688 211.4375 C 285.75 211.601562 285.804688 211.761719 285.847656 211.9375 C 285.898438 212.148438 285.9375 212.371094 285.992188 212.582031 C 286.019531 212.675781 286.097656 212.726562 286.191406 212.699219 C 286.226562 212.6875 286.273438 212.671875 286.304688 212.640625 C 286.710938 212.105469 286.910156 211.476562 287.113281 210.867188 C 287.257812 210.414062 287.34375 209.925781 287.507812 209.472656 C 287.722656 208.894531 287.890625 208.3125 287.980469 207.699219 C 288.027344 207.351562 288.121094 207.003906 288.199219 206.675781 C 288.375 205.953125 288.515625 205.226562 288.613281 204.484375 C 288.730469 203.570312 288.929688 202.671875 289.222656 201.796875 C 289.367188 201.34375 289.515625 200.890625 289.617188 200.402344 C 289.675781 200.085938 289.691406 199.800781 289.578125 199.496094 C 289.449219 199.140625 289.527344 198.808594 289.699219 198.484375 C 289.71875 198.4375 289.734375 198.40625 289.769531 198.375 C 290.039062 197.972656 290.171875 197.503906 290.285156 197.03125 C 290.34375 196.8125 290.367188 196.605469 290.425781 196.386719 C 290.5625 195.835938 290.726562 195.289062 290.972656 194.777344 C 291.285156 194.105469 291.554688 193.402344 291.902344 192.753906 C 292.179688 192.207031 292.410156 191.632812 292.53125 191.03125 C 292.757812 189.835938 293.0625 188.640625 293.117188 187.40625 C 293.128906 187.136719 293.15625 186.882812 293.183594 186.613281 C 293.273438 186.046875 293.28125 185.476562 293.304688 184.90625 C 293.324219 184.460938 293.328125 184.03125 293.363281 183.589844 C 293.390625 183.367188 293.460938 183.164062 293.535156 182.960938 C 293.554688 182.882812 293.636719 182.824219 293.703125 182.761719 C 293.765625 182.703125 293.863281 182.675781 293.941406 182.726562 C 294.019531 182.761719 294.078125 182.828125 294.125 182.894531 C 294.167969 182.957031 294.179688 183.054688 294.175781 183.148438 C 294.183594 183.371094 294.171875 183.59375 294.179688 183.800781 C 294.144531 184.941406 293.953125 186.0625 293.949219 187.203125 C 293.945312 187.285156 293.941406 187.378906 293.921875 187.472656 C 293.789062 188.386719 293.652344 189.289062 293.5 190.203125 C 293.34375 191.242188 293.03125 192.246094 292.53125 193.191406 C 292.082031 194.046875 291.726562 194.9375 291.382812 195.839844 C 291.257812 196.167969 291.164062 196.5 291.070312 196.84375 C 291.050781 196.921875 291.0625 197.019531 291.074219 197.097656 C 291.101562 197.195312 291.195312 197.246094 291.277344 197.203125 C 291.359375 197.175781 291.441406 197.113281 291.472656 197.050781 C 291.628906 196.789062 291.765625 196.527344 291.921875 196.261719 C 292.230469 195.734375 292.703125 195.4375 293.316406 195.464844 C 293.617188 195.480469 293.933594 195.492188 294.238281 195.441406 C 294.683594 195.382812 295.109375 195.480469 295.527344 195.625 C 295.605469 195.660156 295.683594 195.695312 295.761719 195.746094 C 296.070312 195.9375 296.160156 196.386719 295.957031 196.675781 C 295.875 196.785156 295.804688 196.894531 295.707031 196.96875 C 295.394531 197.226562 295.085938 197.449219 294.773438 197.707031 C 294.328125 198.066406 293.839844 198.347656 293.339844 198.628906 C 293.0625 198.773438 292.773438 198.871094 292.472656 198.890625 C 292.296875 198.898438 292.121094 198.90625 291.945312 198.929688 C 291.773438 198.9375 291.597656 198.949219 291.421875 198.972656 C 291.039062 199.019531 290.777344 199.230469 290.605469 199.554688 C 290.5 199.742188 290.425781 199.960938 290.355469 200.164062 C 289.957031 201.335938 289.746094 202.535156 289.53125 203.746094 C 289.339844 204.914062 289.097656 206.078125 288.824219 207.226562 C 288.5 208.546875 288.203125 209.867188 287.828125 211.167969 C 287.601562 211.96875 287.285156 212.734375 286.792969 213.425781 C 286.472656 213.886719 286.214844 214.402344 285.953125 214.914062 C 285.8125 215.191406 285.722656 215.476562 285.722656 215.792969 C 285.71875 215.917969 285.695312 216.0625 285.675781 216.1875 C 285.65625 216.265625 285.605469 216.34375 285.570312 216.421875 C 285.519531 216.496094 285.453125 216.558594 285.386719 216.601562 C 285.058594 216.859375 284.871094 217.183594 284.742188 217.574219 C 284.613281 218 284.5 218.40625 284.449219 218.847656 C 284.371094 219.542969 284.277344 220.238281 284.152344 220.933594 C 284.03125 221.546875 284.003906 222.148438 283.992188 222.765625 C 283.988281 223.210938 283.984375 223.640625 283.980469 224.085938 C 283.984375 224.785156 283.96875 225.480469 283.859375 226.175781 C 283.8125 226.476562 283.769531 226.789062 283.835938 227.09375 C 283.847656 227.128906 283.863281 227.175781 283.910156 227.195312 C 284 227.246094 284.082031 227.234375 284.148438 227.140625 C 284.433594 226.757812 284.691406 226.339844 284.992188 225.972656 C 285.496094 225.34375 286.148438 224.894531 286.949219 224.738281 C 287.074219 224.710938 287.203125 224.703125 287.328125 224.691406 C 287.457031 224.683594 287.597656 224.703125 287.726562 224.726562 C 288.039062 224.769531 288.28125 225.035156 288.285156 225.351562 C 288.285156 225.65625 288.257812 225.972656 288.242188 226.273438 C 288.222656 226.730469 288.03125 227.105469 287.714844 227.441406 C 287.515625 227.667969 287.285156 227.882812 287.023438 228.03125 C 286.570312 228.296875 286.101562 228.527344 285.601562 228.699219 C 285.230469 228.824219 284.847656 228.933594 284.476562 229.0625 C 284.125 229.171875 283.890625 229.417969 283.75 229.773438 C 283.691406 229.949219 283.621094 230.101562 283.582031 230.277344 C 283.433594 230.824219 283.28125 231.375 283.164062 231.925781 C 283.027344 232.523438 282.855469 233.117188 282.6875 233.699219 C 282.523438 234.246094 282.386719 234.796875 282.253906 235.347656 C 282.195312 235.597656 282.132812 235.867188 282.125 236.121094 C 282.109375 236.816406 281.96875 237.511719 281.890625 238.207031 C 281.761719 239.328125 281.335938 240.308594 280.632812 241.183594 C 279.945312 242.042969 279.246094 242.867188 278.496094 243.675781 C 277.898438 244.320312 277.222656 244.875 276.460938 245.320312 C 275.550781 245.835938 274.699219 246.464844 273.863281 247.09375 C 273.339844 247.484375 272.828125 247.90625 272.488281 248.480469 C 272.382812 248.664062 272.171875 248.785156 271.949219 248.835938 C 271.820312 248.863281 271.691406 248.90625 271.5625 248.914062 C 271.292969 248.953125 271.066406 249.070312 270.855469 249.21875 C 270.496094 249.472656 270.179688 249.761719 269.867188 250.078125 C 269.351562 250.613281 268.835938 251.160156 268.320312 251.695312 C 267.773438 252.257812 267.257812 252.855469 266.816406 253.503906 C 266.425781 254.074219 265.992188 254.625 265.492188 255.128906 C 265.078125 255.523438 264.726562 255.96875 264.390625 256.429688 C 264.171875 256.707031 263.96875 256.984375 263.722656 257.242188 C 263.121094 257.882812 262.492188 258.488281 261.878906 259.113281 C 261.324219 259.535156 260.765625 259.953125 260.207031 260.375 C 260.175781 260.40625 260.144531 260.433594 260.109375 260.449219 C 259.796875 260.707031 259.457031 260.882812 259.101562 261.054688 C 258 261.578125 256.886719 262.085938 255.683594 262.367188 C 255.476562 262.421875 255.269531 262.492188 255.058594 262.5625 C 254.929688 262.605469 254.800781 262.628906 254.675781 262.640625 C 254.59375 262.652344 254.5 262.648438 254.421875 262.613281 C 254.328125 262.59375 254.285156 262.511719 254.257812 262.433594 C 254.230469 262.335938 254.25 262.257812 254.316406 262.195312 C 254.445312 262.074219 254.59375 261.984375 254.769531 261.960938 C 255.328125 261.859375 255.871094 261.707031 256.40625 261.492188 C 257.050781 261.238281 257.695312 260.964844 258.328125 260.671875 C 259.117188 260.3125 259.867188 259.851562 260.527344 259.277344 C 260.757812 259.082031 261.003906 258.902344 261.25 258.707031 C 261.527344 258.496094 261.777344 258.253906 262.007812 257.992188 C 262.34375 257.59375 262.707031 257.214844 263.121094 256.867188 C 263.382812 256.640625 263.617188 256.378906 263.820312 256.085938 C 263.972656 255.871094 264.136719 255.671875 264.289062 255.457031 C 264.613281 254.976562 264.964844 254.550781 265.363281 254.136719 C 265.726562 253.757812 266.0625 253.359375 266.335938 252.894531 C 266.625 252.398438 266.996094 251.96875 267.390625 251.558594 C 268.054688 250.875 268.722656 250.171875 269.402344 249.488281 C 269.582031 249.304688 269.78125 249.140625 269.992188 248.972656 C 270.15625 248.839844 270.351562 248.71875 270.515625 248.582031 C 270.894531 248.28125 271.226562 247.933594 271.484375 247.53125 C 271.550781 247.421875 271.589844 247.28125 271.5625 247.152344 C 271.507812 246.945312 271.453125 246.734375 271.398438 246.527344 C 271.265625 246.011719 271.113281 245.511719 270.992188 245 C 270.953125 244.839844 270.929688 244.648438 270.933594 244.472656 C 270.953125 244.03125 271.070312 243.605469 271.289062 243.234375 C 271.410156 243.050781 271.542969 242.878906 271.722656 242.746094 C 271.96875 242.566406 272.246094 242.433594 272.550781 242.351562 C 272.597656 242.339844 272.628906 242.339844 272.675781 242.328125 C 273.109375 242.25 273.695312 242.59375 273.835938 243.011719 C 273.878906 243.140625 273.871094 243.269531 273.882812 243.394531 C 273.878906 243.476562 273.859375 243.570312 273.839844 243.648438 C 273.570312 244.382812 273.425781 245.171875 273.183594 245.921875 C 273.09375 246.15625 273.066406 246.425781 273.023438 246.675781 Z M 292.269531 198.023438 C 292.671875 197.960938 293.011719 197.785156 293.320312 197.546875 C 293.730469 197.230469 294.125 196.898438 294.492188 196.535156 C 294.507812 196.503906 294.527344 196.457031 294.511719 196.40625 C 294.5 196.375 294.453125 196.324219 294.4375 196.324219 C 294.183594 196.3125 293.914062 196.300781 293.660156 196.308594 C 293.390625 196.3125 293.164062 196.460938 292.996094 196.660156 C 292.914062 196.75 292.828125 196.859375 292.761719 196.964844 C 292.554688 197.304688 292.382812 197.664062 292.269531 198.023438 Z M 285.058594 227.753906 C 285.101562 227.832031 285.195312 227.871094 285.289062 227.84375 C 285.816406 227.753906 286.269531 227.519531 286.695312 227.222656 C 287.007812 226.980469 287.226562 226.65625 287.386719 226.296875 C 287.402344 226.265625 287.40625 226.21875 287.40625 226.171875 C 287.445312 226 287.3125 225.820312 287.15625 225.796875 C 286.933594 225.769531 286.726562 225.792969 286.53125 225.894531 C 286.417969 225.953125 286.304688 226.027344 286.207031 226.105469 C 285.796875 226.433594 285.460938 226.816406 285.203125 227.265625 C 285.136719 227.375 285.101562 227.5 285.0625 227.609375 C 285.027344 227.671875 285.027344 227.71875 285.058594 227.753906 Z M 272.007812 245.648438 C 272.023438 245.679688 272.085938 245.699219 272.117188 245.699219 C 272.148438 245.703125 272.214844 245.671875 272.230469 245.640625 C 272.28125 245.566406 272.332031 245.503906 272.351562 245.410156 C 272.507812 244.78125 272.644531 244.136719 272.785156 243.507812 C 272.804688 243.410156 272.777344 243.332031 272.699219 243.265625 C 272.636719 243.214844 272.542969 243.195312 272.464844 243.222656 C 272.382812 243.25 272.300781 243.292969 272.234375 243.355469 C 271.890625 243.65625 271.730469 244.046875 271.722656 244.570312 C 271.753906 244.921875 271.785156 245.304688 272.007812 245.648438 Z M 285.011719 212.21875 C 284.964844 212.136719 284.90625 212.089844 284.808594 212.066406 C 284.699219 212.046875 284.539062 212.152344 284.5 212.261719 C 284.480469 212.339844 284.445312 212.433594 284.441406 212.511719 C 284.449219 213.085938 284.597656 213.632812 284.8125 214.148438 C 284.828125 214.179688 284.875 214.214844 284.90625 214.214844 C 284.984375 214.234375 285.066406 214.207031 285.101562 214.113281 C 285.222656 213.832031 285.269531 213.535156 285.25 213.230469 C 285.265625 212.882812 285.152344 212.542969 285.011719 212.21875 Z M 285.011719 212.21875 " fill-opacity="1" fill-rule="nonzero"/></g></g></g></g><g clip-path="url(#96a93d616b)"><g clip-path="url(#06d6ebcded)"><g transform="matrix(1, 0, 0, 1, 77, 180)"><g clip-path="url(#0c08563617)"><g clip-path="url(#1c42af66db)"><g clip-path="url(#b49c40549d)"><g clip-path="url(#556e7e3b16)"><g clip-path="url(#028545928c)"><path fill="#000000" d="M 24.792969 66.664062 C 24.40625 66.570312 24.0625 66.367188 23.738281 66.160156 C 23.261719 65.847656 22.789062 65.539062 22.328125 65.195312 C 21.375 64.511719 20.4375 63.78125 19.648438 62.882812 C 19.414062 62.621094 19.164062 62.378906 18.914062 62.121094 C 18.363281 61.5625 17.886719 60.933594 17.445312 60.273438 C 17.121094 59.796875 16.90625 59.28125 16.765625 58.71875 C 16.644531 58.199219 16.558594 57.695312 16.515625 57.15625 C 16.425781 55.96875 16.226562 54.820312 15.871094 53.679688 C 15.585938 52.753906 15.367188 51.8125 15.148438 50.886719 C 15.050781 50.492188 15.0625 50.113281 15.265625 49.738281 C 15.324219 49.621094 15.363281 49.492188 15.375 49.367188 C 15.382812 49.238281 15.378906 49.097656 15.339844 48.988281 C 15.300781 48.863281 15.234375 48.753906 15.148438 48.644531 C 14.980469 48.433594 14.875 48.199219 14.8125 47.949219 C 14.621094 47.226562 14.519531 46.484375 14.5625 45.738281 C 14.570312 45.515625 14.558594 45.292969 14.5625 45.085938 C 14.5625 44.433594 14.546875 43.769531 14.4375 43.121094 C 14.390625 42.824219 14.375 42.503906 14.359375 42.203125 C 14.34375 41.585938 14.300781 40.984375 14.207031 40.371094 C 14.164062 40.117188 14.132812 39.847656 14.121094 39.578125 C 14.105469 38.960938 13.949219 38.363281 13.78125 37.785156 C 13.6875 37.488281 13.59375 37.207031 13.484375 36.910156 C 13.464844 36.832031 13.429688 36.738281 13.425781 36.660156 C 13.402344 36.183594 13.34375 35.695312 13.480469 35.226562 C 13.546875 34.96875 13.597656 34.714844 13.683594 34.46875 C 13.90625 33.839844 13.96875 33.1875 14.078125 32.546875 C 14.164062 32.046875 13.953125 31.597656 13.617188 31.21875 C 13.433594 31.019531 13.175781 30.953125 12.90625 30.933594 C 12.492188 30.890625 12.109375 31.132812 11.96875 31.488281 C 11.894531 31.652344 11.839844 31.8125 11.800781 31.988281 C 11.75 32.199219 11.710938 32.421875 11.660156 32.632812 C 11.632812 32.726562 11.554688 32.78125 11.457031 32.753906 C 11.425781 32.738281 11.378906 32.726562 11.34375 32.695312 C 10.9375 32.160156 10.734375 31.53125 10.53125 30.921875 C 10.378906 30.46875 10.292969 29.980469 10.128906 29.53125 C 9.910156 28.953125 9.738281 28.375 9.644531 27.757812 C 9.597656 27.410156 9.5 27.066406 9.421875 26.738281 C 9.246094 26.015625 9.097656 25.292969 9 24.550781 C 8.875 23.632812 8.671875 22.738281 8.375 21.863281 C 8.226562 21.410156 8.078125 20.957031 7.976562 20.46875 C 7.914062 20.15625 7.898438 19.871094 8.011719 19.5625 C 8.136719 19.207031 8.054688 18.878906 7.882812 18.550781 C 7.863281 18.503906 7.847656 18.476562 7.8125 18.445312 C 7.539062 18.046875 7.40625 17.574219 7.289062 17.105469 C 7.230469 16.882812 7.203125 16.679688 7.144531 16.460938 C 7.007812 15.910156 6.839844 15.363281 6.59375 14.851562 C 6.273438 14.183594 6.003906 13.480469 5.652344 12.832031 C 5.375 12.289062 5.140625 11.714844 5.015625 11.117188 C 4.78125 9.921875 4.472656 8.726562 4.410156 7.492188 C 4.398438 7.222656 4.371094 6.96875 4.339844 6.703125 C 4.25 6.132812 4.238281 5.5625 4.210938 4.992188 C 4.1875 4.546875 4.183594 4.121094 4.144531 3.675781 C 4.117188 3.457031 4.046875 3.253906 3.972656 3.050781 C 3.953125 2.972656 3.871094 2.914062 3.804688 2.851562 C 3.738281 2.792969 3.640625 2.765625 3.566406 2.816406 C 3.488281 2.851562 3.425781 2.917969 3.382812 2.984375 C 3.339844 3.050781 3.328125 3.144531 3.332031 3.242188 C 3.328125 3.464844 3.335938 3.683594 3.332031 3.890625 C 3.371094 5.035156 3.570312 6.152344 3.578125 7.292969 C 3.582031 7.375 3.585938 7.46875 3.605469 7.5625 C 3.746094 8.476562 3.882812 9.375 4.039062 10.289062 C 4.203125 11.332031 4.519531 12.332031 5.027344 13.277344 C 5.480469 14.128906 5.839844 15.015625 6.183594 15.917969 C 6.3125 16.246094 6.40625 16.574219 6.503906 16.921875 C 6.523438 17 6.511719 17.09375 6.5 17.175781 C 6.472656 17.269531 6.378906 17.324219 6.296875 17.28125 C 6.21875 17.25 6.136719 17.191406 6.101562 17.128906 C 5.945312 16.867188 5.804688 16.605469 5.652344 16.34375 C 5.339844 15.816406 4.867188 15.523438 4.25 15.554688 C 3.949219 15.566406 3.632812 15.582031 3.328125 15.535156 C 2.882812 15.476562 2.460938 15.578125 2.039062 15.722656 C 1.960938 15.761719 1.882812 15.796875 1.808594 15.847656 C 1.5 16.035156 1.410156 16.484375 1.613281 16.777344 C 1.699219 16.882812 1.769531 16.992188 1.867188 17.066406 C 2.179688 17.320312 2.492188 17.542969 2.804688 17.800781 C 3.25 18.160156 3.742188 18.4375 4.246094 18.714844 C 4.523438 18.859375 4.8125 18.957031 5.113281 18.972656 C 5.289062 18.980469 5.460938 18.988281 5.636719 19.011719 C 5.8125 19.019531 5.988281 19.027344 6.164062 19.050781 C 6.546875 19.09375 6.808594 19.304688 6.984375 19.628906 C 7.085938 19.8125 7.160156 20.03125 7.234375 20.234375 C 7.640625 21.40625 7.859375 22.605469 8.074219 23.816406 C 8.273438 24.980469 8.523438 26.144531 8.800781 27.292969 C 9.132812 28.609375 9.433594 29.929688 9.816406 31.226562 C 10.042969 32.027344 10.367188 32.789062 10.859375 33.480469 C 11.183594 33.941406 11.445312 34.453125 11.710938 34.964844 C 11.847656 35.242188 11.941406 35.523438 11.941406 35.84375 C 11.949219 35.96875 11.972656 36.109375 11.992188 36.238281 C 12.011719 36.316406 12.0625 36.390625 12.097656 36.46875 C 12.152344 36.546875 12.21875 36.605469 12.28125 36.652344 C 12.613281 36.90625 12.800781 37.230469 12.933594 37.621094 C 13.0625 38.042969 13.179688 38.449219 13.230469 38.890625 C 13.3125 39.585938 13.410156 40.28125 13.539062 40.972656 C 13.664062 41.585938 13.695312 42.1875 13.707031 42.808594 C 13.714844 43.253906 13.71875 43.679688 13.726562 44.125 C 13.726562 44.824219 13.746094 45.523438 13.859375 46.214844 C 13.90625 46.515625 13.953125 46.832031 13.886719 47.136719 C 13.875 47.167969 13.859375 47.214844 13.8125 47.234375 C 13.71875 47.285156 13.640625 47.273438 13.574219 47.183594 C 13.285156 46.800781 13.027344 46.382812 12.722656 46.015625 C 12.21875 45.390625 11.5625 44.945312 10.761719 44.792969 C 10.632812 44.769531 10.507812 44.757812 10.378906 44.75 C 10.253906 44.738281 10.109375 44.761719 9.984375 44.785156 C 9.671875 44.832031 9.429688 45.097656 9.429688 45.414062 C 9.429688 45.71875 9.460938 46.03125 9.472656 46.335938 C 9.496094 46.792969 9.6875 47.164062 10.007812 47.5 C 10.207031 47.726562 10.441406 47.9375 10.699219 48.085938 C 11.15625 48.347656 11.628906 48.578125 12.128906 48.746094 C 12.5 48.871094 12.882812 48.980469 13.253906 49.105469 C 13.609375 49.214844 13.84375 49.457031 13.988281 49.816406 C 14.042969 49.988281 14.113281 50.140625 14.152344 50.316406 C 14.308594 50.863281 14.460938 51.410156 14.582031 51.960938 C 14.722656 52.558594 14.894531 53.152344 15.066406 53.734375 C 15.234375 54.28125 15.371094 54.832031 15.507812 55.378906 C 15.570312 55.628906 15.628906 55.898438 15.640625 56.152344 C 15.660156 56.847656 15.804688 57.539062 15.886719 58.234375 C 16.019531 59.355469 16.449219 60.335938 17.15625 61.207031 C 17.847656 62.0625 18.554688 62.886719 19.304688 63.691406 C 19.90625 64.328125 20.585938 64.882812 21.351562 65.324219 C 22.261719 65.835938 23.117188 66.460938 23.957031 67.085938 C 24.480469 67.472656 24.992188 67.894531 25.339844 68.464844 C 25.441406 68.648438 25.65625 68.765625 25.878906 68.820312 C 26.007812 68.84375 26.136719 68.886719 26.261719 68.894531 C 26.535156 68.929688 26.761719 69.046875 26.976562 69.195312 C 27.335938 69.445312 27.652344 69.734375 27.96875 70.050781 C 28.484375 70.582031 29.003906 71.128906 29.519531 71.660156 C 30.070312 72.21875 30.589844 72.8125 31.035156 73.460938 C 31.425781 74.027344 31.863281 74.578125 32.363281 75.078125 C 32.78125 75.472656 33.132812 75.914062 33.472656 76.375 C 33.691406 76.648438 33.898438 76.925781 34.148438 77.183594 C 34.75 77.820312 35.378906 78.425781 35.996094 79.046875 C 36.554688 79.464844 37.113281 79.882812 37.675781 80.300781 C 37.707031 80.328125 37.742188 80.359375 37.773438 80.375 C 38.085938 80.628906 38.429688 80.804688 38.785156 80.976562 C 39.886719 81.492188 41.003906 81.996094 42.207031 82.269531 C 42.417969 82.324219 42.625 82.394531 42.835938 82.460938 C 42.964844 82.503906 43.089844 82.527344 43.21875 82.539062 C 43.296875 82.550781 43.394531 82.546875 43.472656 82.511719 C 43.566406 82.488281 43.609375 82.410156 43.636719 82.328125 C 43.664062 82.230469 43.644531 82.152344 43.578125 82.09375 C 43.445312 81.972656 43.296875 81.882812 43.121094 81.859375 C 42.5625 81.761719 42.015625 81.613281 41.484375 81.398438 C 40.835938 81.144531 40.191406 80.875 39.558594 80.589844 C 38.765625 80.230469 38.011719 79.773438 37.351562 79.203125 C 37.121094 79.007812 36.875 78.828125 36.625 78.636719 C 36.347656 78.425781 36.097656 78.183594 35.863281 77.925781 C 35.527344 77.527344 35.160156 77.148438 34.746094 76.804688 C 34.480469 76.578125 34.246094 76.320312 34.042969 76.027344 C 33.890625 75.8125 33.722656 75.617188 33.570312 75.402344 C 33.246094 74.925781 32.890625 74.496094 32.492188 74.085938 C 32.125 73.707031 31.789062 73.3125 31.511719 72.847656 C 31.21875 72.355469 30.847656 71.929688 30.449219 71.519531 C 29.78125 70.835938 29.113281 70.136719 28.429688 69.457031 C 28.246094 69.277344 28.046875 69.109375 27.835938 68.945312 C 27.667969 68.8125 27.472656 68.695312 27.308594 68.558594 C 26.929688 68.257812 26.59375 67.910156 26.339844 67.511719 C 26.269531 67.402344 26.230469 67.261719 26.257812 67.132812 C 26.308594 66.925781 26.363281 66.714844 26.414062 66.503906 C 26.550781 65.992188 26.699219 65.492188 26.816406 64.976562 C 26.855469 64.816406 26.878906 64.625 26.871094 64.449219 C 26.847656 64.007812 26.734375 63.582031 26.507812 63.214844 C 26.390625 63.027344 26.253906 62.859375 26.074219 62.726562 C 25.828125 62.546875 25.550781 62.417969 25.246094 62.339844 C 25.199219 62.324219 25.167969 62.324219 25.117188 62.3125 C 24.6875 62.238281 24.101562 62.585938 23.964844 63.003906 C 23.921875 63.132812 23.929688 63.261719 23.917969 63.386719 C 23.921875 63.464844 23.941406 63.5625 23.960938 63.640625 C 24.234375 64.371094 24.386719 65.160156 24.628906 65.910156 C 24.71875 66.144531 24.746094 66.414062 24.792969 66.664062 Z M 5.308594 18.105469 C 4.910156 18.046875 4.570312 17.871094 4.253906 17.632812 C 3.84375 17.320312 3.449219 16.988281 3.082031 16.625 C 3.0625 16.59375 3.046875 16.546875 3.058594 16.5 C 3.074219 16.46875 3.117188 16.417969 3.132812 16.417969 C 3.386719 16.40625 3.65625 16.390625 3.910156 16.394531 C 4.179688 16.398438 4.410156 16.546875 4.578125 16.742188 C 4.660156 16.835938 4.746094 16.941406 4.8125 17.050781 C 5.019531 17.390625 5.195312 17.746094 5.308594 18.105469 Z M 12.667969 47.796875 C 12.625 47.878906 12.53125 47.917969 12.433594 47.890625 C 11.90625 47.804688 11.453125 47.570312 11.027344 47.273438 C 10.714844 47.035156 10.492188 46.714844 10.332031 46.355469 C 10.3125 46.324219 10.3125 46.277344 10.308594 46.230469 C 10.269531 46.058594 10.402344 45.875 10.558594 45.851562 C 10.78125 45.824219 10.988281 45.847656 11.183594 45.949219 C 11.296875 46.007812 11.410156 46.082031 11.511719 46.15625 C 11.921875 46.484375 12.257812 46.867188 12.515625 47.3125 C 12.585938 47.421875 12.625 47.546875 12.660156 47.65625 C 12.695312 47.71875 12.699219 47.765625 12.667969 47.796875 Z M 25.804688 65.628906 C 25.789062 65.664062 25.726562 65.683594 25.695312 65.683594 C 25.664062 65.683594 25.597656 65.65625 25.582031 65.625 C 25.53125 65.546875 25.480469 65.488281 25.457031 65.394531 C 25.300781 64.765625 25.160156 64.121094 25.015625 63.492188 C 24.996094 63.398438 25.023438 63.316406 25.101562 63.25 C 25.160156 63.199219 25.253906 63.179688 25.335938 63.207031 C 25.417969 63.234375 25.496094 63.277344 25.5625 63.339844 C 25.910156 63.640625 26.074219 64.027344 26.082031 64.550781 C 26.050781 64.902344 26.023438 65.285156 25.804688 65.628906 Z M 12.640625 32.265625 C 12.683594 32.183594 12.742188 32.132812 12.835938 32.113281 C 12.949219 32.09375 13.109375 32.195312 13.148438 32.304688 C 13.167969 32.382812 13.203125 32.476562 13.207031 32.554688 C 13.203125 33.128906 13.054688 33.675781 12.84375 34.195312 C 12.828125 34.226562 12.785156 34.261719 12.753906 34.261719 C 12.675781 34.28125 12.59375 34.253906 12.558594 34.160156 C 12.433594 33.878906 12.386719 33.582031 12.402344 33.277344 C 12.386719 32.929688 12.496094 32.589844 12.640625 32.265625 Z M 12.640625 32.265625 " fill-opacity="1" fill-rule="nonzero"/></g></g></g></g></g></g></g></g><g fill="#000000" fill-opacity="1"><g transform="translate(138.397473, 281.739465)"><g><path d="M 4.203125 -0.21875 C 4.023438 0.0507812 3.820312 0.28125 3.59375 0.46875 C 3.375 0.65625 3.132812 0.789062 2.875 0.875 C 2.625 0.957031 2.359375 0.984375 2.078125 0.953125 C 1.804688 0.929688 1.507812 0.847656 1.1875 0.703125 C 0.914062 0.566406 0.691406 0.398438 0.515625 0.203125 C 0.347656 0.015625 0.253906 -0.148438 0.234375 -0.296875 L 1.28125 -0.984375 C 1.332031 -0.878906 1.398438 -0.78125 1.484375 -0.6875 C 1.578125 -0.59375 1.6875 -0.515625 1.8125 -0.453125 C 2.0625 -0.335938 2.285156 -0.332031 2.484375 -0.4375 C 2.679688 -0.539062 2.859375 -0.703125 3.015625 -0.921875 L 6.484375 -5.78125 L 7.734375 -5.1875 Z M 4.203125 -0.21875 "/></g></g></g><g fill="#000000" fill-opacity="1"><g transform="translate(149.089834, 286.417027)"><g><path d="M 5.15625 0.921875 C 4.820312 1.078125 4.445312 1.179688 4.03125 1.234375 C 3.613281 1.296875 3.179688 1.242188 2.734375 1.078125 C 2.378906 0.960938 2.085938 0.804688 1.859375 0.609375 C 1.640625 0.421875 1.472656 0.210938 1.359375 -0.015625 C 1.242188 -0.253906 1.179688 -0.507812 1.171875 -0.78125 C 1.171875 -1.0625 1.21875 -1.335938 1.3125 -1.609375 C 1.445312 -2.015625 1.644531 -2.382812 1.90625 -2.71875 C 2.175781 -3.050781 2.492188 -3.316406 2.859375 -3.515625 C 3.222656 -3.710938 3.625 -3.832031 4.0625 -3.875 C 4.5 -3.925781 4.945312 -3.875 5.40625 -3.71875 C 5.957031 -3.519531 6.332031 -3.265625 6.53125 -2.953125 C 6.726562 -2.640625 6.75 -2.273438 6.59375 -1.859375 C 6.394531 -1.296875 5.941406 -0.960938 5.234375 -0.859375 C 4.535156 -0.753906 3.644531 -0.859375 2.5625 -1.171875 C 2.46875 -0.859375 2.492188 -0.59375 2.640625 -0.375 C 2.785156 -0.164062 3.015625 -0.0078125 3.328125 0.09375 C 3.585938 0.1875 3.851562 0.21875 4.125 0.1875 C 4.40625 0.164062 4.648438 0.113281 4.859375 0.03125 Z M 4.921875 -2.6875 C 4.722656 -2.757812 4.523438 -2.789062 4.328125 -2.78125 C 4.128906 -2.769531 3.941406 -2.726562 3.765625 -2.65625 C 3.597656 -2.582031 3.4375 -2.484375 3.28125 -2.359375 C 3.125 -2.242188 3 -2.101562 2.90625 -1.9375 C 3.601562 -1.75 4.15625 -1.664062 4.5625 -1.6875 C 4.96875 -1.71875 5.207031 -1.851562 5.28125 -2.09375 C 5.332031 -2.226562 5.320312 -2.347656 5.25 -2.453125 C 5.1875 -2.554688 5.078125 -2.632812 4.921875 -2.6875 Z M 4.921875 -2.6875 "/></g></g></g><g fill="#000000" fill-opacity="1"><g transform="translate(161.244938, 290.213279)"><g><path d="M 9 -3.375 C 8.84375 -2.882812 8.640625 -2.410156 8.390625 -1.953125 C 8.140625 -1.492188 7.859375 -1.066406 7.546875 -0.671875 C 7.242188 -0.273438 6.921875 0.0820312 6.578125 0.40625 C 6.234375 0.726562 5.878906 0.992188 5.515625 1.203125 L 4.546875 1 C 4.597656 0.539062 4.640625 0.109375 4.671875 -0.296875 C 4.703125 -0.703125 4.734375 -1.097656 4.765625 -1.484375 C 4.453125 -1.054688 4.113281 -0.65625 3.75 -0.28125 C 3.394531 0.0820312 3.019531 0.378906 2.625 0.609375 L 1.640625 0.390625 C 1.679688 -0.0546875 1.707031 -0.488281 1.71875 -0.90625 C 1.738281 -1.332031 1.75 -1.757812 1.75 -2.1875 C 1.75 -2.613281 1.742188 -3.050781 1.734375 -3.5 C 1.734375 -3.945312 1.722656 -4.414062 1.703125 -4.90625 L 3.09375 -4.625 C 3.125 -3.976562 3.125 -3.34375 3.09375 -2.71875 C 3.070312 -2.09375 3.023438 -1.53125 2.953125 -1.03125 C 3.328125 -1.375 3.644531 -1.75 3.90625 -2.15625 C 4.164062 -2.5625 4.394531 -2.976562 4.59375 -3.40625 C 4.582031 -3.5625 4.566406 -3.710938 4.546875 -3.859375 C 4.535156 -4.003906 4.523438 -4.160156 4.515625 -4.328125 L 5.90625 -4.03125 C 5.925781 -3.71875 5.9375 -3.394531 5.9375 -3.0625 C 5.9375 -2.738281 5.925781 -2.421875 5.90625 -2.109375 C 5.894531 -1.804688 5.867188 -1.507812 5.828125 -1.21875 C 5.796875 -0.9375 5.757812 -0.675781 5.71875 -0.4375 C 6.21875 -0.90625 6.625 -1.425781 6.9375 -2 C 7.25 -2.570312 7.476562 -3.128906 7.625 -3.671875 Z M 9 -3.375 "/></g></g></g><g fill="#000000" fill-opacity="1"><g transform="translate(175.974593, 292.773712)"><g><path d="M 5.21875 -0.390625 C 4.9375 -0.160156 4.597656 0.03125 4.203125 0.1875 C 3.816406 0.34375 3.382812 0.398438 2.90625 0.359375 C 2.53125 0.328125 2.210938 0.25 1.953125 0.125 C 1.691406 0 1.472656 -0.160156 1.296875 -0.359375 C 1.128906 -0.566406 1.007812 -0.800781 0.9375 -1.0625 C 0.863281 -1.320312 0.835938 -1.597656 0.859375 -1.890625 C 0.890625 -2.304688 0.992188 -2.707031 1.171875 -3.09375 C 1.359375 -3.488281 1.601562 -3.828125 1.90625 -4.109375 C 2.207031 -4.398438 2.554688 -4.625 2.953125 -4.78125 C 3.359375 -4.9375 3.804688 -4.992188 4.296875 -4.953125 C 4.878906 -4.898438 5.304688 -4.742188 5.578125 -4.484375 C 5.859375 -4.234375 5.972656 -3.890625 5.921875 -3.453125 C 5.878906 -2.859375 5.523438 -2.421875 4.859375 -2.140625 C 4.203125 -1.867188 3.3125 -1.75 2.1875 -1.78125 C 2.1875 -1.445312 2.273438 -1.191406 2.453125 -1.015625 C 2.640625 -0.847656 2.898438 -0.753906 3.234375 -0.734375 C 3.515625 -0.703125 3.785156 -0.734375 4.046875 -0.828125 C 4.304688 -0.929688 4.53125 -1.046875 4.71875 -1.171875 Z M 4.09375 -3.828125 C 3.882812 -3.847656 3.679688 -3.828125 3.484375 -3.765625 C 3.296875 -3.710938 3.128906 -3.628906 2.984375 -3.515625 C 2.835938 -3.398438 2.707031 -3.265625 2.59375 -3.109375 C 2.476562 -2.953125 2.390625 -2.78125 2.328125 -2.59375 C 3.046875 -2.582031 3.597656 -2.640625 3.984375 -2.765625 C 4.367188 -2.898438 4.570312 -3.09375 4.59375 -3.34375 C 4.601562 -3.488281 4.5625 -3.601562 4.46875 -3.6875 C 4.382812 -3.769531 4.257812 -3.816406 4.09375 -3.828125 Z M 4.09375 -3.828125 "/></g></g></g><g fill="#000000" fill-opacity="1"><g transform="translate(188.632332, 293.368794)"><g><path d="M 1.8125 -8.0625 L 3.125 -8.09375 L 2.15625 -1.859375 C 2.132812 -1.773438 2.125 -1.722656 2.125 -1.703125 C 2.101562 -1.335938 2.242188 -1.160156 2.546875 -1.171875 C 2.640625 -1.171875 2.742188 -1.191406 2.859375 -1.234375 C 2.972656 -1.273438 3.066406 -1.316406 3.140625 -1.359375 L 3.328125 -0.3125 C 3.191406 -0.226562 3.003906 -0.144531 2.765625 -0.0625 C 2.535156 0.0078125 2.300781 0.0507812 2.0625 0.0625 C 1.695312 0.0703125 1.40625 -0.00390625 1.1875 -0.171875 C 0.976562 -0.335938 0.859375 -0.597656 0.828125 -0.953125 C 0.785156 -1.203125 0.785156 -1.441406 0.828125 -1.671875 Z M 1.8125 -8.0625 "/></g></g></g><g fill="#000000" fill-opacity="1"><g transform="translate(199.119415, 292.77349)"><g><path d="M 1.03125 -8.1875 L 2.328125 -8.34375 L 1.96875 -2.0625 C 1.957031 -1.976562 1.953125 -1.925781 1.953125 -1.90625 C 1.972656 -1.53125 2.132812 -1.363281 2.4375 -1.40625 C 2.53125 -1.414062 2.628906 -1.441406 2.734375 -1.484375 C 2.847656 -1.535156 2.9375 -1.585938 3 -1.640625 L 3.265625 -0.625 C 3.148438 -0.53125 2.976562 -0.429688 2.75 -0.328125 C 2.53125 -0.234375 2.300781 -0.171875 2.0625 -0.140625 C 1.695312 -0.0976562 1.398438 -0.148438 1.171875 -0.296875 C 0.953125 -0.441406 0.804688 -0.6875 0.734375 -1.03125 C 0.671875 -1.269531 0.648438 -1.507812 0.671875 -1.75 Z M 1.03125 -8.1875 "/></g></g></g><g fill="#000000" fill-opacity="1"><g transform="translate(209.534003, 291.195579)"><g><path d="M 4.859375 -1.953125 C 4.660156 -1.640625 4.398438 -1.347656 4.078125 -1.078125 C 3.753906 -0.816406 3.359375 -0.632812 2.890625 -0.53125 C 2.523438 -0.445312 2.191406 -0.425781 1.890625 -0.46875 C 1.597656 -0.507812 1.335938 -0.597656 1.109375 -0.734375 C 0.890625 -0.878906 0.707031 -1.066406 0.5625 -1.296875 C 0.414062 -1.523438 0.3125 -1.78125 0.25 -2.0625 C 0.15625 -2.476562 0.132812 -2.894531 0.1875 -3.3125 C 0.238281 -3.738281 0.363281 -4.128906 0.5625 -4.484375 C 0.769531 -4.847656 1.046875 -5.164062 1.390625 -5.4375 C 1.734375 -5.707031 2.144531 -5.898438 2.625 -6.015625 C 3.1875 -6.140625 3.632812 -6.125 3.96875 -5.96875 C 4.3125 -5.8125 4.523438 -5.515625 4.609375 -5.078125 C 4.742188 -4.492188 4.535156 -3.96875 3.984375 -3.5 C 3.441406 -3.039062 2.628906 -2.660156 1.546875 -2.359375 C 1.640625 -2.035156 1.800781 -1.816406 2.03125 -1.703125 C 2.269531 -1.597656 2.550781 -1.582031 2.875 -1.65625 C 3.144531 -1.71875 3.390625 -1.835938 3.609375 -2.015625 C 3.828125 -2.191406 4.007812 -2.363281 4.15625 -2.53125 Z M 2.75 -4.890625 C 2.539062 -4.835938 2.351562 -4.757812 2.1875 -4.65625 C 2.03125 -4.550781 1.894531 -4.421875 1.78125 -4.265625 C 1.675781 -4.109375 1.585938 -3.9375 1.515625 -3.75 C 1.453125 -3.5625 1.425781 -3.375 1.4375 -3.1875 C 2.125 -3.394531 2.628906 -3.617188 2.953125 -3.859375 C 3.285156 -4.097656 3.425781 -4.335938 3.375 -4.578125 C 3.34375 -4.722656 3.269531 -4.816406 3.15625 -4.859375 C 3.050781 -4.910156 2.914062 -4.921875 2.75 -4.890625 Z M 2.75 -4.890625 "/></g></g></g><g fill="#000000" fill-opacity="1"><g transform="translate(221.792071, 287.945795)"><g><path d="M -0.234375 -5.375 L 1 -5.8125 L 1.171875 -4.703125 C 1.203125 -4.867188 1.25 -5.039062 1.3125 -5.21875 C 1.382812 -5.394531 1.46875 -5.5625 1.5625 -5.71875 C 1.65625 -5.875 1.765625 -6.007812 1.890625 -6.125 C 2.023438 -6.25 2.1875 -6.34375 2.375 -6.40625 C 2.488281 -6.445312 2.59375 -6.46875 2.6875 -6.46875 C 2.78125 -6.46875 2.863281 -6.460938 2.9375 -6.453125 L 2.703125 -5.109375 C 2.578125 -5.140625 2.441406 -5.132812 2.296875 -5.09375 C 2.148438 -5.039062 2.023438 -4.925781 1.921875 -4.75 C 1.828125 -4.582031 1.742188 -4.390625 1.671875 -4.171875 C 1.597656 -3.960938 1.546875 -3.734375 1.515625 -3.484375 C 1.484375 -3.242188 1.472656 -3.019531 1.484375 -2.8125 L 1.84375 -0.640625 L 0.625 -0.21875 Z M -0.234375 -5.375 "/></g></g></g><g fill="#000000" fill-opacity="1"><g transform="translate(232.305492, 283.917232)"><g><path d="M 2.734375 -6.984375 C 2.941406 -5.960938 3.09375 -4.972656 3.1875 -4.015625 C 3.289062 -3.066406 3.3125 -2.207031 3.25 -1.4375 C 3.1875 -0.664062 3.046875 -0.0078125 2.828125 0.53125 C 2.609375 1.082031 2.289062 1.457031 1.875 1.65625 C 1.65625 1.757812 1.445312 1.816406 1.25 1.828125 C 1.0625 1.835938 0.878906 1.8125 0.703125 1.75 L 0.796875 0.609375 C 0.878906 0.617188 0.96875 0.617188 1.0625 0.609375 C 1.164062 0.609375 1.265625 0.585938 1.359375 0.546875 C 1.585938 0.429688 1.742188 0.238281 1.828125 -0.03125 C 1.910156 -0.300781 1.957031 -0.59375 1.96875 -0.90625 C 1.757812 -1.195312 1.515625 -1.503906 1.234375 -1.828125 C 0.953125 -2.160156 0.648438 -2.5 0.328125 -2.84375 C 0.00390625 -3.195312 -0.332031 -3.539062 -0.6875 -3.875 C -1.039062 -4.21875 -1.394531 -4.550781 -1.75 -4.875 L -0.40625 -5.5 C -0.226562 -5.34375 -0.03125 -5.148438 0.1875 -4.921875 C 0.414062 -4.703125 0.640625 -4.46875 0.859375 -4.21875 C 1.085938 -3.96875 1.3125 -3.71875 1.53125 -3.46875 C 1.75 -3.21875 1.9375 -2.976562 2.09375 -2.75 C 2.09375 -3.007812 2.070312 -3.289062 2.03125 -3.59375 C 2 -3.894531 1.957031 -4.207031 1.90625 -4.53125 C 1.863281 -4.851562 1.800781 -5.171875 1.71875 -5.484375 C 1.632812 -5.796875 1.550781 -6.097656 1.46875 -6.390625 Z M 2.734375 -6.984375 "/></g></g></g><g fill="#000000" fill-opacity="1"><g transform="translate(90.716741, 162.598621)"><g><path d="M 0.5625 -1.703125 L -11.71875 -5.734375 C -11.664062 -5.898438 -11.59375 -6.132812 -11.5 -6.4375 C -11.40625 -6.75 -11.300781 -7.070312 -11.1875 -7.40625 C -11.070312 -7.75 -10.960938 -8.082031 -10.859375 -8.40625 C -10.765625 -8.738281 -10.679688 -9.015625 -10.609375 -9.234375 C -10.316406 -10.128906 -9.957031 -10.84375 -9.53125 -11.375 C -9.101562 -11.90625 -8.644531 -12.296875 -8.15625 -12.546875 C -7.675781 -12.796875 -7.171875 -12.921875 -6.640625 -12.921875 C -6.109375 -12.929688 -5.59375 -12.859375 -5.09375 -12.703125 C -4.570312 -12.523438 -4.097656 -12.257812 -3.671875 -11.90625 C -3.253906 -11.5625 -2.925781 -11.132812 -2.6875 -10.625 C -2.445312 -10.125 -2.304688 -9.5625 -2.265625 -8.9375 C -2.234375 -8.3125 -2.34375 -7.628906 -2.59375 -6.890625 C -2.65625 -6.703125 -2.738281 -6.457031 -2.84375 -6.15625 C -2.945312 -5.851562 -3.054688 -5.570312 -3.171875 -5.3125 L 1.265625 -3.859375 Z M -8.515625 -8.78125 C -8.585938 -8.550781 -8.664062 -8.304688 -8.75 -8.046875 C -8.832031 -7.796875 -8.914062 -7.519531 -9 -7.21875 L -5.21875 -5.984375 C -5.113281 -6.242188 -5.007812 -6.492188 -4.90625 -6.734375 C -4.8125 -6.984375 -4.722656 -7.234375 -4.640625 -7.484375 C -4.535156 -7.785156 -4.472656 -8.09375 -4.453125 -8.40625 C -4.429688 -8.71875 -4.46875 -9 -4.5625 -9.25 C -4.664062 -9.5 -4.820312 -9.722656 -5.03125 -9.921875 C -5.25 -10.128906 -5.53125 -10.289062 -5.875 -10.40625 C -6.507812 -10.613281 -7.046875 -10.578125 -7.484375 -10.296875 C -7.921875 -10.015625 -8.265625 -9.507812 -8.515625 -8.78125 Z M -8.515625 -8.78125 "/></g></g></g><g fill="#000000" fill-opacity="1"><g transform="translate(97.334468, 144.828348)"><g><path d="M -10.453125 -7.8125 L -6.84375 -14.34375 L -4.984375 -13.3125 L -7.5 -8.765625 L -4.6875 -7.21875 L -2.4375 -11.28125 L -0.59375 -10.265625 L -2.84375 -6.203125 L 0.09375 -4.59375 L 2.703125 -9.3125 L 4.5625 -8.28125 L 0.859375 -1.578125 Z M -10.453125 -7.8125 "/></g></g></g><g fill="#000000" fill-opacity="1"><g transform="translate(106.605591, 129.127881)"><g><path d="M -4.375 -4.828125 C -5.082031 -5.429688 -5.640625 -6.125 -6.046875 -6.90625 C -6.453125 -7.6875 -6.6875 -8.492188 -6.75 -9.328125 C -6.820312 -10.160156 -6.71875 -11 -6.4375 -11.84375 C -6.164062 -12.695312 -5.707031 -13.503906 -5.0625 -14.265625 C -4.4375 -14.992188 -3.734375 -15.566406 -2.953125 -15.984375 C -2.171875 -16.398438 -1.367188 -16.644531 -0.546875 -16.71875 C 0.273438 -16.800781 1.109375 -16.707031 1.953125 -16.4375 C 2.804688 -16.164062 3.613281 -15.703125 4.375 -15.046875 C 5.113281 -14.410156 5.675781 -13.695312 6.0625 -12.90625 C 6.457031 -12.125 6.6875 -11.3125 6.75 -10.46875 C 6.8125 -9.632812 6.703125 -8.796875 6.421875 -7.953125 C 6.140625 -7.117188 5.6875 -6.335938 5.0625 -5.609375 C 4.4375 -4.878906 3.738281 -4.304688 2.96875 -3.890625 C 2.195312 -3.472656 1.394531 -3.222656 0.5625 -3.140625 C -0.269531 -3.054688 -1.109375 -3.148438 -1.953125 -3.421875 C -2.804688 -3.703125 -3.613281 -4.171875 -4.375 -4.828125 Z M -2.796875 -6.65625 C -2.304688 -6.226562 -1.773438 -5.914062 -1.203125 -5.71875 C -0.640625 -5.53125 -0.0820312 -5.453125 0.46875 -5.484375 C 1.03125 -5.523438 1.566406 -5.671875 2.078125 -5.921875 C 2.597656 -6.171875 3.054688 -6.523438 3.453125 -6.984375 C 3.890625 -7.492188 4.191406 -8.03125 4.359375 -8.59375 C 4.523438 -9.15625 4.578125 -9.707031 4.515625 -10.25 C 4.453125 -10.800781 4.273438 -11.332031 3.984375 -11.84375 C 3.703125 -12.351562 3.316406 -12.816406 2.828125 -13.234375 C 2.328125 -13.660156 1.789062 -13.96875 1.21875 -14.15625 C 0.644531 -14.351562 0.078125 -14.429688 -0.484375 -14.390625 C -1.046875 -14.359375 -1.582031 -14.210938 -2.09375 -13.953125 C -2.601562 -13.703125 -3.054688 -13.347656 -3.453125 -12.890625 C -3.847656 -12.421875 -4.132812 -11.910156 -4.3125 -11.359375 C -4.488281 -10.816406 -4.550781 -10.265625 -4.5 -9.703125 C -4.445312 -9.148438 -4.273438 -8.609375 -3.984375 -8.078125 C -3.691406 -7.554688 -3.296875 -7.082031 -2.796875 -6.65625 Z M -2.796875 -6.65625 "/></g></g></g><g fill="#000000" fill-opacity="1"><g transform="translate(121.987061, 112.503319)"><g><path d="M 8.84375 -6.5625 L -2.203125 -9.515625 L 3.140625 -2.328125 L 1.4375 -1.078125 L -6.265625 -11.453125 L -4.8125 -12.515625 L 6.25 -9.53125 L 0.890625 -16.75 L 2.59375 -18.03125 L 10.296875 -7.65625 Z M 8.84375 -6.5625 "/></g></g></g><g fill="#000000" fill-opacity="1"><g transform="translate(140.354662, 100.030357)"><g><path d="M 4.03125 -7.78125 L 6.28125 -2.890625 L 4.234375 -1.953125 L 1.984375 -6.84375 L -5.328125 -11.78125 L -2.984375 -12.859375 L 2.203125 -9.296875 L 2.828125 -15.53125 L 5.046875 -16.546875 Z M 4.03125 -7.78125 "/></g></g></g><g fill="#000000" fill-opacity="1"><g transform="translate(158.315171, 92.747351)"><g/></g></g><g fill="#000000" fill-opacity="1"><g transform="translate(169.611196, 89.78057)"><g><path d="M 9.3125 -6.578125 L 3.4375 -5.921875 L 4.03125 -0.4375 L 1.78125 -0.203125 L 0.375 -13.046875 L 2.625 -13.28125 L 3.203125 -8.03125 L 9.078125 -8.6875 L 8.5 -13.9375 L 10.734375 -14.171875 L 12.140625 -1.328125 L 9.90625 -1.09375 Z M 9.3125 -6.578125 "/></g></g></g><g fill="#000000" fill-opacity="1"><g transform="translate(191.112725, 88.201046)"><g><path d="M 1.546875 -6.3125 C 1.648438 -7.25 1.90625 -8.101562 2.3125 -8.875 C 2.726562 -9.644531 3.265625 -10.289062 3.921875 -10.8125 C 4.578125 -11.34375 5.332031 -11.734375 6.1875 -11.984375 C 7.050781 -12.242188 7.976562 -12.316406 8.96875 -12.203125 C 9.914062 -12.097656 10.78125 -11.835938 11.5625 -11.421875 C 12.34375 -11.003906 13 -10.472656 13.53125 -9.828125 C 14.0625 -9.191406 14.453125 -8.445312 14.703125 -7.59375 C 14.953125 -6.75 15.019531 -5.820312 14.90625 -4.8125 C 14.800781 -3.90625 14.550781 -3.082031 14.15625 -2.34375 C 13.769531 -1.601562 13.265625 -0.96875 12.640625 -0.4375 L 14 1.578125 L 11.375 1.28125 L 10.921875 0.609375 C 9.890625 1.035156 8.742188 1.179688 7.484375 1.046875 C 6.535156 0.941406 5.671875 0.6875 4.890625 0.28125 C 4.109375 -0.125 3.445312 -0.648438 2.90625 -1.296875 C 2.375 -1.941406 1.984375 -2.691406 1.734375 -3.546875 C 1.492188 -4.398438 1.429688 -5.320312 1.546875 -6.3125 Z M 3.9375 -6.046875 C 3.863281 -5.410156 3.898438 -4.800781 4.046875 -4.21875 C 4.203125 -3.632812 4.453125 -3.125 4.796875 -2.6875 C 5.148438 -2.25 5.570312 -1.882812 6.0625 -1.59375 C 6.5625 -1.3125 7.113281 -1.132812 7.71875 -1.0625 C 8.40625 -0.988281 9.0625 -1.050781 9.6875 -1.25 L 8.75 -2.640625 L 10.359375 -3.796875 L 11.359375 -2.328125 C 11.671875 -2.679688 11.925781 -3.09375 12.125 -3.5625 C 12.332031 -4.03125 12.46875 -4.535156 12.53125 -5.078125 C 12.601562 -5.742188 12.5625 -6.367188 12.40625 -6.953125 C 12.25 -7.535156 11.992188 -8.046875 11.640625 -8.484375 C 11.296875 -8.921875 10.875 -9.28125 10.375 -9.5625 C 9.875 -9.851562 9.320312 -10.03125 8.71875 -10.09375 C 8.101562 -10.164062 7.519531 -10.117188 6.96875 -9.953125 C 6.425781 -9.785156 5.9375 -9.523438 5.5 -9.171875 C 5.070312 -8.816406 4.722656 -8.375 4.453125 -7.84375 C 4.179688 -7.3125 4.007812 -6.710938 3.9375 -6.046875 Z M 3.9375 -6.046875 "/></g></g></g><g fill="#000000" fill-opacity="1"><g transform="translate(213.625482, 91.880515)"><g/></g></g><g fill="#000000" fill-opacity="1"><g transform="translate(224.77657, 95.430131)"><g><path d="M 7.171875 -10.90625 L 9.21875 -9.921875 L 6.59375 -4.390625 L 13.8125 -7.75 L 16.28125 -6.5625 L 8.890625 -3.421875 L 11.03125 5.25 L 8.4375 4.015625 L 6.53125 -4.265625 L 3.671875 1.75 L 1.625 0.765625 Z M 7.171875 -10.90625 "/></g></g></g><g fill="#000000" fill-opacity="1"><g transform="translate(242.518198, 104.766065)"><g><path d="M 9.125 -9.34375 L 15.125 -4.90625 L 13.859375 -3.1875 L 9.671875 -6.28125 L 7.765625 -3.6875 L 11.5 -0.9375 L 10.25 0.75 L 6.515625 -2 L 4.53125 0.703125 L 8.875 3.90625 L 7.609375 5.609375 L 1.453125 1.0625 Z M 9.125 -9.34375 "/></g></g></g><g fill="#000000" fill-opacity="1"><g transform="translate(256.856512, 116.038054)"><g><path d="M 7.375 8.1875 L 9.265625 -3.09375 L 2.609375 2.90625 L 1.203125 1.328125 L 10.796875 -7.328125 L 12 -5.984375 L 10.09375 5.3125 L 16.765625 -0.703125 L 18.1875 0.875 L 8.59375 9.53125 Z M 7.375 8.1875 "/></g></g></g><g fill="#000000" fill-opacity="1"><g transform="translate(271.005298, 133.148362)"><g><path d="M 8.140625 3.28125 L 3.484375 5.984375 L 2.34375 4.03125 L 7 1.328125 L 11.21875 -6.40625 L 12.515625 -4.171875 L 9.453125 1.3125 L 15.71875 1.34375 L 16.953125 3.46875 Z M 8.140625 3.28125 "/></g></g></g><g fill="#000000" fill-opacity="1"><g transform="translate(280.073096, 150.108176)"><g><path d="M 14.0625 1.140625 L 14.6875 3.015625 L 4.1875 12.359375 L 3.40625 10.0625 L 6.09375 7.734375 L 4.328125 2.5 L 0.78125 2.296875 L 0.046875 0.125 Z M 6.625 2.640625 L 7.84375 6.25 L 11.578125 2.984375 Z M 6.625 2.640625 "/></g></g></g><g clip-path="url(#d1d31135ad)"><path fill="#82001a" d="M 154.394531 167.632812 C 150.539062 168.460938 147.398438 168.214844 145.007812 166.890625 C 140.90625 164.613281 139.175781 159.167969 139.867188 150.703125 C 140.546875 142.390625 143.421875 137.011719 148.414062 134.722656 C 153.609375 132.339844 160.90625 133.28125 170.109375 137.527344 C 176.925781 140.671875 182.304688 144.5625 182.359375 144.601562 L 182.546875 144.738281 L 182.476562 144.960938 C 180.726562 150.609375 183.78125 152.015625 183.914062 152.074219 L 185.847656 152.921875 L 183.75 152.695312 C 182.652344 152.574219 180.882812 153.296875 178.632812 154.78125 C 176.898438 155.929688 175.492188 157.128906 175.476562 157.140625 L 175.460938 157.15625 C 175.410156 157.195312 170.28125 160.992188 164.023438 164.074219 C 160.441406 165.835938 157.226562 167.023438 154.398438 167.636719 Z M 151.289062 134.453125 C 150.378906 134.648438 149.511719 134.929688 148.679688 135.3125 C 143.917969 137.496094 141.167969 142.691406 140.511719 150.753906 C 139.84375 158.945312 141.460938 164.183594 145.320312 166.324219 C 154.722656 171.535156 174.550781 157.019531 175.0625 156.640625 C 175.367188 156.382812 179.777344 152.648438 182.824219 152.097656 C 181.859375 151.222656 180.558594 149.183594 181.789062 144.992188 C 179.820312 143.605469 162.832031 131.972656 151.289062 134.453125 Z M 151.289062 134.453125 " fill-opacity="1" fill-rule="nonzero"/></g><g clip-path="url(#3b116357b7)"><path fill="#82001a" d="M 226.792969 157.074219 C 223.382812 157.804688 218.96875 157.703125 213.585938 156.753906 C 206.714844 155.542969 200.730469 153.328125 200.671875 153.308594 L 200.648438 153.300781 C 200.582031 153.269531 193.980469 150.300781 191.460938 151.339844 L 189.441406 152.175781 L 191.136719 150.789062 C 191.136719 150.789062 191.804688 150.21875 192.066406 149.066406 C 192.414062 147.519531 191.878906 145.613281 190.523438 143.558594 L 190.394531 143.363281 L 190.539062 143.179688 C 190.578125 143.128906 194.65625 137.890625 200.320312 132.964844 C 207.96875 126.320312 214.714844 123.375 220.371094 124.210938 C 225.804688 125.015625 230.066406 129.375 233.039062 137.167969 C 236.070312 145.105469 235.933594 150.816406 232.628906 154.144531 C 231.222656 155.5625 229.269531 156.539062 226.792969 157.074219 Z M 200.910156 152.707031 C 201.503906 152.925781 224.601562 161.324219 232.171875 153.691406 C 235.28125 150.554688 235.371094 145.074219 232.4375 137.398438 C 229.554688 129.839844 225.464844 125.621094 220.277344 124.851562 C 213.480469 123.847656 205.910156 128.972656 200.753906 133.453125 C 195.726562 137.820312 191.957031 142.445312 191.191406 143.402344 C 193.546875 147.082031 192.871094 149.402344 192.1875 150.511719 C 195.261719 150.183594 200.542969 152.539062 200.910156 152.703125 Z M 200.910156 152.707031 " fill-opacity="1" fill-rule="nonzero"/></g><path fill="#82001a" d="M 221.398438 148.914062 C 219.101562 149.40625 216.292969 149.53125 212.976562 149.28125 C 207.96875 148.90625 203.601562 147.773438 203.558594 147.761719 L 203.535156 147.753906 C 203.480469 147.734375 198.046875 145.902344 192.613281 147.894531 L 192.390625 147.285156 C 197.96875 145.242188 203.363281 147.011719 203.734375 147.136719 C 204.257812 147.273438 220.953125 151.492188 226.410156 145.707031 C 228.34375 143.65625 228.644531 140.53125 227.304688 136.414062 C 226.695312 134.542969 225.558594 133.371094 223.824219 132.832031 C 214.617188 129.953125 192.667969 146.511719 192.449219 146.679688 L 192.058594 146.164062 C 192.113281 146.121094 197.699219 141.890625 204.375 138.082031 C 213.390625 132.933594 220 130.957031 224.015625 132.214844 C 225.9375 132.816406 227.25 134.160156 227.921875 136.214844 C 229.34375 140.574219 228.992188 143.917969 226.882812 146.152344 C 225.636719 147.476562 223.800781 148.398438 221.398438 148.917969 Z M 221.398438 148.914062 " fill-opacity="1" fill-rule="nonzero"/><path fill="#82001a" d="M 157.140625 158.710938 C 153.347656 159.527344 150.347656 159.308594 148.191406 158.054688 C 145.535156 156.511719 144.25 153.40625 144.371094 148.824219 C 144.429688 146.664062 145.308594 145 146.976562 143.878906 C 150.472656 141.53125 157.371094 141.546875 167.480469 143.921875 C 174.960938 145.679688 181.519531 148.148438 181.582031 148.175781 L 181.355469 148.78125 C 181.097656 148.679688 155.347656 139.039062 147.335938 144.417969 C 145.828125 145.429688 145.070312 146.878906 145.015625 148.84375 C 144.898438 153.171875 146.078125 156.082031 148.515625 157.496094 C 155.390625 161.496094 170.203125 152.703125 170.660156 152.425781 C 170.980469 152.199219 175.652344 148.972656 181.578125 149.34375 L 181.539062 149.988281 C 175.761719 149.625 171.074219 152.925781 171.027344 152.957031 L 171.003906 152.972656 C 170.964844 152.996094 167.105469 155.324219 162.40625 157.109375 C 160.507812 157.828125 158.75 158.363281 157.136719 158.710938 Z M 157.140625 158.710938 " fill-opacity="1" fill-rule="nonzero"/><path fill="#82001a" d="M 190.707031 143.691406 C 185.671875 142.277344 182.414062 145.074219 182.382812 145.105469 L 181.953125 144.617188 C 182.097656 144.492188 185.511719 141.558594 190.878906 143.070312 Z M 190.707031 143.691406 " fill-opacity="1" fill-rule="nonzero"/><path fill="#82001a" d="M 188.132812 152.730469 C 185.699219 153.253906 183.804688 152.714844 183.691406 152.679688 L 183.875 152.058594 C 183.910156 152.070312 187.585938 153.113281 191.164062 150.769531 L 191.515625 151.308594 C 190.351562 152.070312 189.191406 152.503906 188.132812 152.726562 Z M 188.132812 152.730469 " fill-opacity="1" fill-rule="nonzero"/><path fill="#82001a" d="M 232.660156 195.183594 L 232.28125 194.972656 C 232.25 194.957031 229.167969 193.265625 227.292969 193.667969 C 225.421875 194.070312 222.941406 195.628906 222.914062 195.644531 L 222.628906 195.828125 L 222.457031 195.53125 C 222.226562 195.121094 216.746094 185.386719 216.550781 181.183594 C 216.472656 179.589844 214.675781 177.707031 211.347656 175.742188 C 208.78125 174.226562 206.210938 173.203125 206.183594 173.195312 C 206.101562 173.160156 199.019531 169.972656 196.597656 162 C 194.261719 154.308594 190.511719 151.738281 190.476562 151.710938 L 190.832031 151.171875 C 190.875 151.199219 191.855469 151.859375 193.136719 153.507812 C 194.304688 155.011719 195.960938 157.675781 197.21875 161.8125 C 199.550781 169.492188 206.363281 172.566406 206.433594 172.597656 C 206.855469 172.765625 216.992188 176.816406 217.195312 181.152344 C 217.363281 184.808594 221.929688 193.238281 222.859375 194.921875 C 223.578125 194.484375 225.496094 193.394531 227.160156 193.035156 C 228.839844 192.675781 231.203125 193.710938 232.164062 194.1875 C 232.207031 193.308594 232.113281 191.125 230.636719 187.824219 C 229.84375 186.050781 229.144531 185.203125 228.464844 184.378906 C 227.402344 183.097656 226.402344 181.886719 225.269531 177.617188 C 224.285156 173.90625 220.109375 171.691406 215.273438 169.128906 C 211.402344 167.078125 207.019531 164.753906 203.871094 161.277344 C 198.296875 155.113281 197.078125 154.3125 194.414062 152.5625 C 193.785156 152.152344 193.074219 151.683594 192.210938 151.085938 L 192.582031 150.554688 C 193.4375 151.148438 194.144531 151.613281 194.769531 152.023438 C 197.480469 153.804688 198.722656 154.617188 204.351562 160.84375 C 207.421875 164.238281 211.753906 166.535156 215.574219 168.558594 C 220.546875 171.191406 224.839844 173.46875 225.898438 177.453125 C 226.996094 181.585938 227.953125 182.746094 228.964844 183.96875 C 229.671875 184.824219 230.402344 185.710938 231.230469 187.5625 C 233.28125 192.148438 232.78125 194.65625 232.757812 194.761719 L 232.667969 195.191406 Z M 232.660156 195.183594 " fill-opacity="1" fill-rule="nonzero"/><path fill="#82001a" d="M 152.394531 196.363281 L 152.109375 196.171875 C 152.085938 196.15625 149.699219 194.554688 147.773438 194.097656 C 145.910156 193.65625 142.792969 195.28125 142.761719 195.296875 L 142.375 195.496094 L 142.292969 195.070312 C 142.273438 194.964844 141.828125 192.445312 143.980469 187.902344 C 144.847656 186.070312 145.597656 185.203125 146.324219 184.363281 C 147.363281 183.15625 148.347656 182.023438 149.535156 177.914062 C 150.679688 173.953125 155.019531 171.773438 160.046875 169.25 C 163.914062 167.308594 168.296875 165.113281 171.4375 161.785156 C 177.113281 155.78125 178.15625 155.136719 180.671875 153.582031 C 181.3125 153.183594 182.039062 152.734375 182.96875 152.121094 L 183.324219 152.660156 C 182.386719 153.28125 181.65625 153.734375 181.011719 154.132812 C 178.546875 155.65625 177.527344 156.285156 171.910156 162.226562 C 168.6875 165.636719 164.253906 167.863281 160.339844 169.828125 C 155.445312 172.285156 151.222656 174.402344 150.152344 178.09375 C 148.929688 182.335938 147.898438 183.523438 146.8125 184.78125 C 146.117188 185.589844 145.394531 186.425781 144.5625 188.179688 C 143.015625 191.445312 142.871094 193.628906 142.894531 194.507812 C 143.867188 194.050781 146.253906 193.066406 147.925781 193.464844 C 149.578125 193.859375 151.472656 194.992188 152.183594 195.441406 C 153.148438 193.78125 157.898438 185.457031 158.148438 181.800781 C 158.445312 177.472656 168.671875 173.644531 169.109375 173.484375 C 169.167969 173.460938 176.046875 170.535156 178.546875 162.910156 C 181.136719 155.023438 185.230469 152.429688 185.40625 152.324219 L 185.742188 152.871094 C 185.703125 152.898438 181.667969 155.46875 179.160156 163.109375 C 176.5625 171.023438 169.414062 174.054688 169.34375 174.085938 C 169.304688 174.101562 166.703125 175.066406 164.105469 176.527344 C 160.738281 178.417969 158.902344 180.257812 158.792969 181.847656 C 158.503906 186.046875 152.8125 195.65625 152.570312 196.066406 L 152.394531 196.359375 Z M 152.394531 196.363281 " fill-opacity="1" fill-rule="nonzero"/><path fill="#82001a" d="M 167.09375 206.179688 L 166.679688 205.679688 C 179.714844 194.871094 185.199219 152.984375 185.25 152.558594 L 185.894531 152.640625 C 185.882812 152.746094 184.507812 163.375 181.523438 175.214844 C 177.511719 191.148438 172.65625 201.566406 167.09375 206.179688 Z M 167.09375 206.179688 " fill-opacity="1" fill-rule="nonzero"/><path fill="#82001a" d="M 172.246094 209.175781 L 171.671875 208.878906 C 185.132812 182.5 187.660156 152.722656 187.683594 152.425781 L 188.328125 152.476562 C 188.304688 152.777344 185.765625 182.683594 172.246094 209.175781 Z M 172.246094 209.175781 " fill-opacity="1" fill-rule="nonzero"/><path fill="#82001a" d="M 226.445312 223.539062 C 226.445312 223.539062 225.386719 220.675781 221.226562 216.976562 C 217.066406 213.273438 212.289062 215.121094 212.289062 215.121094 C 207.128906 217.773438 202.417969 216.359375 202.417969 216.359375 C 202.417969 216.359375 199.195312 215.730469 195.554688 217.835938 C 191.910156 219.941406 190.019531 224.316406 189.980469 230.277344 C 189.941406 236.238281 193.753906 242.695312 193.753906 242.695312 C 193.753906 242.695312 197.347656 249.320312 203.320312 250.457031 C 209.296875 251.59375 217.628906 248.785156 219.480469 248.164062 C 221.332031 247.546875 227.039062 244.367188 228.246094 237.035156 C 229.492188 229.492188 226.445312 223.539062 226.445312 223.539062 Z M 207.976562 245.125 C 207.976562 245.125 206.941406 246.449219 203.207031 245.488281 C 199.472656 244.527344 197.722656 239.632812 197.722656 239.632812 C 197.722656 239.632812 197.351562 238.882812 198.339844 238.398438 C 199.136719 238.007812 200.597656 239.675781 200.597656 239.675781 C 200.597656 239.675781 202.316406 242.738281 204.855469 243.097656 C 209.175781 243.714844 207.976562 245.125 207.976562 245.125 Z M 205.175781 222.027344 C 200.5 223.261719 199.46875 220.082031 201.621094 219.839844 C 201.621094 219.839844 204.613281 219.414062 205.636719 220.078125 C 205.636719 220.078125 207.886719 221.3125 205.175781 222.027344 Z M 210.636719 220.765625 C 207.941406 221.566406 207.746094 219.625 209.019531 219.351562 C 210.292969 219.078125 211.832031 218.101562 213.46875 217.289062 C 215.8125 216.125 216.128906 217.601562 216.128906 217.601562 C 216.65625 219.027344 213.332031 219.964844 210.636719 220.765625 Z M 224.957031 232.011719 C 222.328125 234.125 221.421875 229.910156 221.433594 228.945312 C 221.433594 228.945312 221.40625 227.800781 221.34375 227.5 C 221.253906 227.078125 220.769531 225.859375 222.546875 225.917969 C 223.644531 225.957031 224.367188 226.1875 225.285156 228.414062 C 226.207031 230.640625 224.957031 232.011719 224.957031 232.011719 Z M 224.957031 232.011719 " fill-opacity="1" fill-rule="nonzero"/><path fill="#82001a" d="M 178.195312 210.332031 C 178.195312 210.332031 175.378906 208.511719 173.480469 208.917969 C 171.152344 209.417969 169.589844 208.207031 169.589844 208.207031 C 169.589844 208.207031 166.542969 206.289062 165.03125 203.460938 C 163.554688 200.691406 157.820312 198.621094 154.296875 200.699219 C 154.296875 200.699219 149.679688 202.796875 146.25 208.382812 C 142.824219 213.96875 144.199219 221.390625 144.199219 221.390625 C 144.199219 221.390625 145.5625 230.796875 150.5625 234.570312 C 155.5625 238.34375 161.117188 239.574219 168.085938 239.175781 C 175.054688 238.78125 181.878906 228.492188 182.761719 222.351562 C 183.585938 216.609375 182.707031 212.886719 178.191406 210.328125 Z M 151.386719 215.65625 C 151.386719 215.65625 150.066406 217.921875 151.851562 221.84375 C 153.617188 225.730469 150.675781 224.84375 150.675781 224.84375 C 146.746094 221.941406 148.753906 214.898438 148.753906 214.898438 C 148.753906 214.898438 149.160156 213.707031 149.539062 213.40625 C 150.015625 213.023438 151.179688 212.832031 151.570312 213.628906 C 151.960938 214.429688 151.386719 215.652344 151.386719 215.652344 Z M 163.339844 211.980469 C 161.292969 210.660156 158.683594 205.707031 158.683594 205.707031 C 158.15625 204.28125 159.210938 204.054688 159.628906 203.960938 C 160.050781 203.867188 160.730469 203.945312 161.292969 204.601562 C 161.648438 205.015625 163.574219 207.960938 164.480469 209.089844 C 165.386719 210.21875 166.832031 210.789062 166.832031 210.789062 C 166.832031 210.789062 167.855469 211.449219 170.097656 211.628906 C 172.339844 211.808594 173.636719 213.730469 171.484375 213.976562 C 169.328125 214.21875 165.386719 213.304688 163.339844 211.980469 Z M 175.808594 223.847656 C 174.441406 225.6875 173.601562 224.855469 173.539062 224.558594 C 173.449219 224.132812 173.734375 223.414062 173.734375 223.414062 C 173.734375 223.414062 174.015625 222.691406 173.792969 221.636719 C 173.566406 220.582031 173.878906 219.1875 173.878906 219.1875 C 173.878906 219.1875 174.285156 217.785156 175.472656 218.1875 C 176.386719 218.5 176.589844 219.269531 176.589844 219.269531 C 176.589844 219.269531 177.175781 222.007812 175.808594 223.847656 Z M 175.808594 223.847656 " fill-opacity="1" fill-rule="nonzero"/><path fill="#82001a" d="M 209.964844 216.105469 L 209.320312 216.152344 C 207.773438 195.246094 202.660156 178.84375 198.640625 168.765625 C 194.285156 157.84375 190.242188 151.789062 190.199219 151.726562 L 190.738281 151.367188 C 190.777344 151.425781 194.851562 157.523438 199.230469 168.5 C 203.273438 178.625 208.414062 195.101562 209.964844 216.105469 Z M 209.964844 216.105469 " fill-opacity="1" fill-rule="nonzero"/><path fill="#82001a" d="M 206.90625 216.753906 L 206.261719 216.808594 C 204.527344 195.816406 199.582031 179.484375 195.742188 169.480469 C 191.578125 158.636719 187.773438 152.683594 187.734375 152.625 L 188.277344 152.273438 C 188.316406 152.332031 192.148438 158.328125 196.335938 169.222656 C 200.195312 179.269531 205.164062 195.671875 206.90625 216.75 Z M 206.90625 216.753906 " fill-opacity="1" fill-rule="nonzero"/></svg>