<svg xmlns="http://www.w3.org/2000/svg" xmlns:xlink="http://www.w3.org/1999/xlink" width="500" zoomAndPan="magnify" viewBox="0 0 375 374.999991" height="500" preserveAspectRatio="xMidYMid meet" version="1.0"><defs><g/><clipPath id="177688e366"><path d="M 65.816406 65.816406 L 309.183594 65.816406 L 309.183594 309.183594 L 65.816406 309.183594 Z M 65.816406 65.816406 " clip-rule="nonzero"/></clipPath><clipPath id="44b25b4d81"><path d="M 187.5 65.816406 C 120.296875 65.816406 65.816406 120.296875 65.816406 187.5 C 65.816406 254.703125 120.296875 309.183594 187.5 309.183594 C 254.703125 309.183594 309.183594 254.703125 309.183594 187.5 C 309.183594 120.296875 254.703125 65.816406 187.5 65.816406 Z M 187.5 65.816406 " clip-rule="nonzero"/></clipPath><clipPath id="b44cc06889"><path d="M 0.816406 0.816406 L 244.183594 0.816406 L 244.183594 244.183594 L 0.816406 244.183594 Z M 0.816406 0.816406 " clip-rule="nonzero"/></clipPath><clipPath id="220a89b02f"><path d="M 122.5 0.816406 C 55.296875 0.816406 0.816406 55.296875 0.816406 122.5 C 0.816406 189.703125 55.296875 244.183594 122.5 244.183594 C 189.703125 244.183594 244.183594 189.703125 244.183594 122.5 C 244.183594 55.296875 189.703125 0.816406 122.5 0.816406 Z M 122.5 0.816406 " clip-rule="nonzero"/></clipPath><clipPath id="7ffc0f09df"><rect x="0" width="245" y="0" height="245"/></clipPath><clipPath id="2bea76ca82"><path d="M 65.816406 65.816406 L 308.816406 65.816406 L 308.816406 308.816406 L 65.816406 308.816406 Z M 65.816406 65.816406 " clip-rule="nonzero"/></clipPath><clipPath id="38e12d0bfe"><path d="M 187.5 65.816406 C 120.296875 65.816406 65.816406 120.296875 65.816406 187.5 C 65.816406 254.703125 120.296875 309.179688 187.5 309.179688 C 254.703125 309.179688 309.179688 254.703125 309.179688 187.5 C 309.179688 120.296875 254.703125 65.816406 187.5 65.816406 Z M 187.5 65.816406 " clip-rule="nonzero"/></clipPath><clipPath id="815cba383a"><path d="M 101.171875 101.171875 L 273.828125 101.171875 L 273.828125 273.828125 L 101.171875 273.828125 Z M 101.171875 101.171875 " clip-rule="nonzero"/></clipPath><clipPath id="e3776e9b05"><path d="M 187.5 101.171875 C 139.820312 101.171875 101.171875 139.820312 101.171875 187.5 C 101.171875 235.179688 139.820312 273.828125 187.5 273.828125 C 235.179688 273.828125 273.828125 235.179688 273.828125 187.5 C 273.828125 139.820312 235.179688 101.171875 187.5 101.171875 Z M 187.5 101.171875 " clip-rule="nonzero"/></clipPath><clipPath id="a1a19a76f8"><path d="M 0.171875 0.171875 L 172.828125 0.171875 L 172.828125 172.828125 L 0.171875 172.828125 Z M 0.171875 0.171875 " clip-rule="nonzero"/></clipPath><clipPath id="e798d72e42"><path d="M 86.5 0.171875 C 38.820312 0.171875 0.171875 38.820312 0.171875 86.5 C 0.171875 134.179688 38.820312 172.828125 86.5 172.828125 C 134.179688 172.828125 172.828125 134.179688 172.828125 86.5 C 172.828125 38.820312 134.179688 0.171875 86.5 0.171875 Z M 86.5 0.171875 " clip-rule="nonzero"/></clipPath><clipPath id="9fc16899c9"><rect x="0" width="173" y="0" height="173"/></clipPath><clipPath id="7936a63524"><path d="M 101.171875 101.171875 L 273.671875 101.171875 L 273.671875 273.671875 L 101.171875 273.671875 Z M 101.171875 101.171875 " clip-rule="nonzero"/></clipPath><clipPath id="64db74d082"><path d="M 187.496094 101.171875 C 139.820312 101.171875 101.171875 139.820312 101.171875 187.496094 C 101.171875 235.171875 139.820312 273.824219 187.496094 273.824219 C 235.171875 273.824219 273.824219 235.171875 273.824219 187.496094 C 273.824219 139.820312 235.171875 101.171875 187.496094 101.171875 Z M 187.496094 101.171875 " clip-rule="nonzero"/></clipPath><clipPath id="780052707d"><path d="M 254 182 L 297 182 L 297 263 L 254 263 Z M 254 182 " clip-rule="nonzero"/></clipPath><clipPath id="1c92c0c1f6"><path d="M 257.796875 181.027344 L 296.761719 182.738281 L 293.175781 264.410156 L 254.214844 262.699219 Z M 257.796875 181.027344 " clip-rule="nonzero"/></clipPath><clipPath id="5d98b56062"><path d="M 257.796875 181.027344 L 296.761719 182.738281 L 293.175781 264.410156 L 254.214844 262.699219 Z M 257.796875 181.027344 " clip-rule="nonzero"/></clipPath><clipPath id="850a4d4d87"><path d="M 77 180 L 121 180 L 121 265 L 77 265 Z M 77 180 " clip-rule="nonzero"/></clipPath><clipPath id="7804a51611"><path d="M 77.605469 182.847656 L 116.558594 180.949219 L 120.539062 262.601562 L 81.585938 264.503906 Z M 77.605469 182.847656 " clip-rule="nonzero"/></clipPath><clipPath id="02200e071e"><path d="M 1 2 L 43.71875 2 L 43.71875 83 L 1 83 Z M 1 2 " clip-rule="nonzero"/></clipPath><clipPath id="1ee27ba368"><path d="M 0.605469 2.847656 L 39.558594 0.949219 L 43.539062 82.601562 L 4.585938 84.503906 Z M 0.605469 2.847656 " clip-rule="nonzero"/></clipPath><clipPath id="55e3a5d7e7"><path d="M 39.699219 0.941406 L 0.746094 2.84375 L 4.726562 84.496094 L 43.679688 82.59375 Z M 39.699219 0.941406 " clip-rule="nonzero"/></clipPath><clipPath id="32c312a13e"><rect x="0" width="44" y="0" height="85"/></clipPath><clipPath id="2e92bfefa8"><path d="M 139.140625 133 L 186 133 L 186 169 L 139.140625 169 Z M 139.140625 133 " clip-rule="nonzero"/></clipPath><clipPath id="6d65d198fe"><path d="M 189 124 L 235.890625 124 L 235.890625 158 L 189 158 Z M 189 124 " clip-rule="nonzero"/></clipPath></defs><g clip-path="url(#177688e366)"><g clip-path="url(#44b25b4d81)"><g transform="matrix(1, 0, 0, 1, 65, 65)"><g clip-path="url(#7ffc0f09df)"><g clip-path="url(#b44cc06889)"><g clip-path="url(#220a89b02f)"><path fill="#4d0025" d="M 0.816406 0.816406 L 244.183594 0.816406 L 244.183594 244.183594 L 0.816406 244.183594 Z M 0.816406 0.816406 " fill-opacity="1" fill-rule="nonzero"/></g></g></g></g></g></g><g clip-path="url(#2bea76ca82)"><g clip-path="url(#38e12d0bfe)"><path stroke-linecap="butt" transform="matrix(0.75, 0, 0, 0.75, 65.817979, 65.818004)" fill="none" stroke-linejoin="miter" d="M 162.242705 -0.0021299 C 72.638532 -0.0021299 -0.0020975 72.6385 -0.0020975 162.242672 C -0.0020975 251.846845 72.638532 324.482266 162.242705 324.482266 C 251.846877 324.482266 324.482299 251.846845 324.482299 162.242672 C 324.482299 72.6385 251.846877 -0.0021299 162.242705 -0.0021299 Z M 162.242705 -0.0021299 " stroke="#fcfbf9" stroke-width="2" stroke-opacity="1" stroke-miterlimit="4"/></g></g><g clip-path="url(#815cba383a)"><g clip-path="url(#e3776e9b05)"><g transform="matrix(1, 0, 0, 1, 101, 101)"><g clip-path="url(#9fc16899c9)"><g clip-path="url(#a1a19a76f8)"><g clip-path="url(#e798d72e42)"><path fill="#920b4c" d="M 0.171875 0.171875 L 172.828125 0.171875 L 172.828125 172.828125 L 0.171875 172.828125 Z M 0.171875 0.171875 " fill-opacity="1" fill-rule="nonzero"/></g></g></g></g></g></g><g clip-path="url(#7936a63524)"><g clip-path="url(#64db74d082)"><path stroke-linecap="butt" transform="matrix(0.75, 0, 0, 0.75, 101.170515, 101.170541)" fill="none" stroke-linejoin="miter" d="M 115.10078 0.00177819 C 51.533067 0.00177819 0.00181379 51.533032 0.00181379 115.100744 C 0.00181379 178.668457 51.533067 230.204918 115.10078 230.204918 C 178.668492 230.204918 230.204954 178.668457 230.204954 115.100744 C 230.204954 51.533032 178.668492 0.00177819 115.10078 0.00177819 Z M 115.10078 0.00177819 " stroke="#fcfbf9" stroke-width="2" stroke-opacity="1" stroke-miterlimit="4"/></g></g><g clip-path="url(#780052707d)"><g clip-path="url(#1c92c0c1f6)"><g clip-path="url(#5d98b56062)"><path fill="#fcfbf9" d="M 273.085938 246.761719 C 273.472656 246.667969 273.816406 246.460938 274.144531 246.253906 C 274.617188 245.941406 275.09375 245.628906 275.550781 245.28125 C 276.503906 244.59375 277.445312 243.855469 278.230469 242.949219 C 278.464844 242.691406 278.714844 242.445312 278.964844 242.1875 C 279.511719 241.625 279.984375 240.992188 280.429688 240.328125 C 280.753906 239.847656 280.964844 239.335938 281.101562 238.769531 C 281.21875 238.25 281.304688 237.742188 281.34375 237.203125 C 281.429688 236.015625 281.621094 234.863281 281.976562 233.71875 C 282.253906 232.792969 282.46875 231.847656 282.6875 230.917969 C 282.78125 230.527344 282.769531 230.144531 282.5625 229.769531 C 282.503906 229.65625 282.460938 229.527344 282.449219 229.398438 C 282.441406 229.269531 282.445312 229.128906 282.484375 229.019531 C 282.519531 228.890625 282.589844 228.785156 282.671875 228.675781 C 282.84375 228.460938 282.949219 228.226562 283.007812 227.976562 C 283.195312 227.253906 283.292969 226.507812 283.246094 225.761719 C 283.242188 225.539062 283.25 225.316406 283.242188 225.109375 C 283.242188 224.457031 283.253906 223.789062 283.363281 223.140625 C 283.40625 222.839844 283.421875 222.523438 283.433594 222.222656 C 283.445312 221.601562 283.488281 221 283.578125 220.382812 C 283.621094 220.132812 283.648438 219.863281 283.660156 219.59375 C 283.671875 218.972656 283.824219 218.375 283.992188 217.796875 C 284.085938 217.496094 284.179688 217.214844 284.285156 216.917969 C 284.304688 216.839844 284.34375 216.746094 284.34375 216.664062 C 284.367188 216.191406 284.417969 215.699219 284.28125 215.230469 C 284.214844 214.972656 284.160156 214.71875 284.074219 214.476562 C 283.847656 213.84375 283.78125 213.191406 283.667969 212.550781 C 283.578125 212.050781 283.789062 211.601562 284.125 211.21875 C 284.308594 211.019531 284.5625 210.949219 284.835938 210.929688 C 285.25 210.886719 285.636719 211.125 285.78125 211.480469 C 285.855469 211.644531 285.910156 211.804688 285.949219 211.980469 C 286.003906 212.191406 286.042969 212.414062 286.097656 212.625 C 286.125 212.722656 286.203125 212.773438 286.296875 212.746094 C 286.332031 212.730469 286.378906 212.714844 286.414062 212.6875 C 286.816406 212.148438 287.019531 211.519531 287.222656 210.910156 C 287.367188 210.453125 287.453125 209.964844 287.617188 209.511719 C 287.832031 208.933594 288 208.351562 288.09375 207.734375 C 288.140625 207.386719 288.234375 207.042969 288.3125 206.710938 C 288.488281 205.988281 288.628906 205.261719 288.726562 204.519531 C 288.847656 203.601562 289.042969 202.703125 289.335938 201.828125 C 289.484375 201.371094 289.632812 200.917969 289.734375 200.429688 C 289.792969 200.113281 289.808594 199.828125 289.691406 199.519531 C 289.566406 199.164062 289.644531 198.835938 289.816406 198.507812 C 289.835938 198.460938 289.851562 198.429688 289.886719 198.402344 C 290.15625 198 290.289062 197.527344 290.40625 197.054688 C 290.460938 196.835938 290.488281 196.628906 290.546875 196.410156 C 290.679688 195.859375 290.847656 195.3125 291.09375 194.796875 C 291.410156 194.125 291.679688 193.421875 292.023438 192.769531 C 292.304688 192.226562 292.535156 191.648438 292.65625 191.050781 C 292.882812 189.851562 293.191406 188.65625 293.246094 187.417969 C 293.257812 187.148438 293.285156 186.894531 293.3125 186.625 C 293.402344 186.058594 293.410156 185.484375 293.433594 184.914062 C 293.453125 184.46875 293.457031 184.039062 293.492188 183.597656 C 293.519531 183.375 293.589844 183.171875 293.664062 182.96875 C 293.683594 182.890625 293.765625 182.828125 293.832031 182.769531 C 293.898438 182.707031 293.992188 182.679688 294.070312 182.730469 C 294.148438 182.765625 294.210938 182.832031 294.253906 182.898438 C 294.300781 182.964844 294.3125 183.058594 294.308594 183.15625 C 294.3125 183.378906 294.304688 183.601562 294.308594 183.808594 C 294.277344 184.949219 294.082031 186.070312 294.082031 187.214844 C 294.078125 187.296875 294.074219 187.390625 294.054688 187.484375 C 293.917969 188.402344 293.78125 189.300781 293.632812 190.21875 C 293.472656 191.261719 293.160156 192.265625 292.65625 193.210938 C 292.207031 194.066406 291.847656 194.957031 291.507812 195.863281 C 291.382812 196.191406 291.289062 196.523438 291.191406 196.867188 C 291.171875 196.945312 291.183594 197.042969 291.199219 197.121094 C 291.226562 197.21875 291.316406 197.269531 291.398438 197.226562 C 291.480469 197.199219 291.5625 197.140625 291.597656 197.078125 C 291.75 196.8125 291.890625 196.550781 292.046875 196.285156 C 292.355469 195.757812 292.828125 195.460938 293.449219 195.488281 C 293.75 195.5 294.066406 195.515625 294.371094 195.464844 C 294.820312 195.40625 295.242188 195.503906 295.667969 195.648438 C 295.746094 195.683594 295.824219 195.71875 295.898438 195.769531 C 296.210938 195.960938 296.300781 196.410156 296.097656 196.703125 C 296.011719 196.808594 295.945312 196.917969 295.847656 196.992188 C 295.53125 197.25 295.222656 197.472656 294.90625 197.730469 C 294.460938 198.09375 293.972656 198.375 293.46875 198.652344 C 293.191406 198.800781 292.902344 198.898438 292.597656 198.917969 C 292.421875 198.925781 292.246094 198.933594 292.070312 198.957031 C 291.894531 198.964844 291.71875 198.972656 291.542969 199 C 291.160156 199.046875 290.898438 199.257812 290.722656 199.582031 C 290.621094 199.769531 290.546875 199.988281 290.472656 200.191406 C 290.074219 201.367188 289.863281 202.566406 289.648438 203.78125 C 289.453125 204.949219 289.210938 206.113281 288.941406 207.261719 C 288.613281 208.585938 288.316406 209.90625 287.941406 211.210938 C 287.714844 212.011719 287.394531 212.777344 286.902344 213.46875 C 286.578125 213.933594 286.320312 214.445312 286.058594 214.960938 C 285.917969 215.238281 285.828125 215.523438 285.828125 215.839844 C 285.824219 215.96875 285.800781 216.109375 285.78125 216.234375 C 285.761719 216.3125 285.707031 216.390625 285.671875 216.46875 C 285.621094 216.546875 285.554688 216.609375 285.492188 216.652344 C 285.160156 216.90625 284.972656 217.234375 284.84375 217.625 C 284.714844 218.050781 284.601562 218.457031 284.550781 218.902344 C 284.472656 219.597656 284.378906 220.292969 284.25 220.988281 C 284.128906 221.601562 284.101562 222.203125 284.089844 222.824219 C 284.085938 223.269531 284.085938 223.699219 284.082031 224.144531 C 284.082031 224.84375 284.066406 225.542969 283.957031 226.238281 C 283.914062 226.535156 283.867188 226.851562 283.933594 227.15625 C 283.945312 227.191406 283.960938 227.238281 284.007812 227.257812 C 284.101562 227.308594 284.179688 227.296875 284.25 227.203125 C 284.535156 226.816406 284.792969 226.398438 285.09375 226.03125 C 285.601562 225.402344 286.253906 224.953125 287.058594 224.796875 C 287.183594 224.773438 287.3125 224.761719 287.441406 224.75 C 287.570312 224.742188 287.710938 224.761719 287.835938 224.785156 C 288.152344 224.832031 288.394531 225.09375 288.398438 225.414062 C 288.398438 225.714844 288.371094 226.03125 288.355469 226.335938 C 288.335938 226.792969 288.144531 227.167969 287.828125 227.503906 C 287.628906 227.734375 287.394531 227.945312 287.136719 228.09375 C 286.679688 228.359375 286.207031 228.59375 285.707031 228.761719 C 285.335938 228.886719 284.949219 229 284.578125 229.125 C 284.222656 229.238281 283.988281 229.480469 283.847656 229.839844 C 283.792969 230.011719 283.722656 230.167969 283.679688 230.34375 C 283.53125 230.890625 283.378906 231.441406 283.257812 231.992188 C 283.121094 232.589844 282.953125 233.1875 282.785156 233.769531 C 282.617188 234.320312 282.480469 234.867188 282.34375 235.417969 C 282.285156 235.671875 282.226562 235.9375 282.214844 236.191406 C 282.203125 236.890625 282.058594 237.585938 281.980469 238.28125 C 281.851562 239.40625 281.429688 240.386719 280.722656 241.261719 C 280.03125 242.125 279.328125 242.949219 278.578125 243.761719 C 277.976562 244.402344 277.300781 244.960938 276.53125 245.40625 C 275.621094 245.921875 274.765625 246.550781 273.925781 247.183594 C 273.402344 247.574219 272.890625 247.996094 272.546875 248.570312 C 272.441406 248.753906 272.230469 248.871094 272.007812 248.925781 C 271.878906 248.953125 271.75 248.996094 271.621094 249.003906 C 271.347656 249.039062 271.121094 249.15625 270.90625 249.308594 C 270.546875 249.5625 270.230469 249.851562 269.917969 250.171875 C 269.398438 250.703125 268.882812 251.253906 268.367188 251.789062 C 267.816406 252.351562 267.296875 252.949219 266.855469 253.597656 C 266.464844 254.167969 266.027344 254.722656 265.527344 255.226562 C 265.113281 255.621094 264.761719 256.066406 264.421875 256.527344 C 264.203125 256.804688 264 257.082031 263.75 257.339844 C 263.148438 257.980469 262.519531 258.589844 261.902344 259.214844 C 261.34375 259.636719 260.785156 260.058594 260.226562 260.476562 C 260.191406 260.507812 260.160156 260.539062 260.128906 260.554688 C 259.8125 260.808594 259.472656 260.984375 259.113281 261.160156 C 258.011719 261.683594 256.890625 262.191406 255.6875 262.472656 C 255.476562 262.527344 255.265625 262.597656 255.058594 262.667969 C 254.929688 262.710938 254.800781 262.734375 254.671875 262.746094 C 254.59375 262.757812 254.496094 262.753906 254.417969 262.71875 C 254.324219 262.699219 254.28125 262.617188 254.253906 262.535156 C 254.226562 262.441406 254.242188 262.363281 254.308594 262.300781 C 254.441406 262.179688 254.589844 262.089844 254.765625 262.066406 C 255.328125 261.964844 255.875 261.8125 256.40625 261.597656 C 257.054688 261.339844 257.703125 261.066406 258.335938 260.777344 C 259.132812 260.414062 259.882812 259.953125 260.542969 259.378906 C 260.777344 259.183594 261.023438 259.003906 261.269531 258.804688 C 261.546875 258.597656 261.796875 258.351562 262.03125 258.09375 C 262.367188 257.695312 262.734375 257.3125 263.148438 256.964844 C 263.410156 256.738281 263.644531 256.476562 263.847656 256.183594 C 264 255.96875 264.167969 255.769531 264.320312 255.554688 C 264.644531 255.074219 264.996094 254.644531 265.398438 254.234375 C 265.761719 253.851562 266.097656 253.453125 266.375 252.988281 C 266.664062 252.492188 267.035156 252.0625 267.433594 251.652344 C 268.101562 250.964844 268.765625 250.261719 269.449219 249.578125 C 269.632812 249.394531 269.832031 249.226562 270.042969 249.0625 C 270.210938 248.925781 270.40625 248.808594 270.570312 248.671875 C 270.949219 248.371094 271.28125 248.019531 271.539062 247.617188 C 271.605469 247.507812 271.644531 247.367188 271.617188 247.238281 C 271.566406 247.03125 271.511719 246.820312 271.457031 246.613281 C 271.320312 246.097656 271.167969 245.597656 271.046875 245.085938 C 271.003906 244.921875 270.980469 244.730469 270.988281 244.558594 C 271.007812 244.113281 271.121094 243.6875 271.347656 243.316406 C 271.464844 243.128906 271.601562 242.960938 271.78125 242.828125 C 272.027344 242.648438 272.304688 242.515625 272.609375 242.433594 C 272.65625 242.417969 272.6875 242.421875 272.738281 242.40625 C 273.171875 242.332031 273.757812 242.675781 273.898438 243.09375 C 273.941406 243.222656 273.9375 243.351562 273.945312 243.476562 C 273.941406 243.558594 273.921875 243.652344 273.902344 243.730469 C 273.632812 244.464844 273.488281 245.253906 273.246094 246.007812 C 273.15625 246.242188 273.128906 246.511719 273.085938 246.761719 Z M 292.398438 198.050781 C 292.796875 197.988281 293.140625 197.8125 293.453125 197.570312 C 293.863281 197.253906 294.257812 196.921875 294.625 196.558594 C 294.640625 196.527344 294.660156 196.480469 294.644531 196.429688 C 294.632812 196.398438 294.585938 196.347656 294.570312 196.347656 C 294.316406 196.335938 294.046875 196.324219 293.792969 196.332031 C 293.523438 196.335938 293.292969 196.484375 293.125 196.683594 C 293.042969 196.773438 292.957031 196.882812 292.890625 196.992188 C 292.683594 197.332031 292.507812 197.6875 292.398438 198.050781 Z M 285.160156 227.816406 C 285.203125 227.898438 285.296875 227.933594 285.394531 227.90625 C 285.921875 227.816406 286.378906 227.582031 286.804688 227.285156 C 287.117188 227.042969 287.339844 226.71875 287.496094 226.359375 C 287.515625 226.328125 287.515625 226.28125 287.519531 226.234375 C 287.558594 226.0625 287.421875 225.878906 287.265625 225.855469 C 287.042969 225.832031 286.835938 225.855469 286.640625 225.957031 C 286.527344 226.015625 286.414062 226.089844 286.3125 226.164062 C 285.902344 226.496094 285.566406 226.878906 285.308594 227.328125 C 285.238281 227.4375 285.203125 227.5625 285.167969 227.671875 C 285.132812 227.734375 285.128906 227.78125 285.160156 227.816406 Z M 272.066406 245.734375 C 272.082031 245.765625 272.144531 245.785156 272.175781 245.785156 C 272.207031 245.785156 272.273438 245.757812 272.289062 245.726562 C 272.339844 245.648438 272.390625 245.589844 272.410156 245.492188 C 272.566406 244.863281 272.707031 244.21875 272.84375 243.589844 C 272.863281 243.496094 272.835938 243.414062 272.757812 243.347656 C 272.699219 243.296875 272.605469 243.277344 272.523438 243.304688 C 272.441406 243.332031 272.359375 243.375 272.292969 243.4375 C 271.949219 243.738281 271.789062 244.128906 271.78125 244.65625 C 271.8125 245.007812 271.84375 245.390625 272.066406 245.734375 Z M 285.109375 212.261719 C 285.066406 212.179688 285.003906 212.132812 284.910156 212.109375 C 284.800781 212.089844 284.636719 212.195312 284.601562 212.304688 C 284.582031 212.382812 284.546875 212.476562 284.542969 212.554688 C 284.546875 213.128906 284.699219 213.675781 284.914062 214.195312 C 284.929688 214.226562 284.976562 214.261719 285.007812 214.261719 C 285.085938 214.28125 285.167969 214.253906 285.203125 214.160156 C 285.328125 213.878906 285.371094 213.578125 285.351562 213.273438 C 285.367188 212.925781 285.253906 212.585938 285.109375 212.261719 Z M 285.109375 212.261719 " fill-opacity="1" fill-rule="nonzero"/></g></g></g><g clip-path="url(#850a4d4d87)"><g clip-path="url(#7804a51611)"><g transform="matrix(1, 0, 0, 1, 77, 180)"><g clip-path="url(#32c312a13e)"><g clip-path="url(#02200e071e)"><g clip-path="url(#1ee27ba368)"><g clip-path="url(#55e3a5d7e7)"><path fill="#fcfbf9" d="M 24.730469 66.75 C 24.34375 66.660156 24 66.453125 23.671875 66.246094 C 23.195312 65.933594 22.71875 65.625 22.257812 65.28125 C 21.300781 64.597656 20.359375 63.863281 19.566406 62.964844 C 19.332031 62.703125 19.082031 62.460938 18.832031 62.203125 C 18.277344 61.644531 17.804688 61.015625 17.355469 60.351562 C 17.03125 59.875 16.816406 59.359375 16.675781 58.792969 C 16.554688 58.277344 16.46875 57.769531 16.425781 57.230469 C 16.335938 56.042969 16.136719 54.894531 15.777344 53.75 C 15.496094 52.824219 15.273438 51.882812 15.054688 50.953125 C 14.957031 50.5625 14.96875 50.179688 15.171875 49.800781 C 15.230469 49.6875 15.273438 49.558594 15.28125 49.429688 C 15.292969 49.304688 15.285156 49.160156 15.246094 49.050781 C 15.210938 48.925781 15.140625 48.816406 15.054688 48.710938 C 14.886719 48.496094 14.78125 48.261719 14.71875 48.011719 C 14.523438 47.289062 14.425781 46.546875 14.46875 45.796875 C 14.472656 45.574219 14.460938 45.351562 14.46875 45.144531 C 14.46875 44.492188 14.453125 43.828125 14.339844 43.179688 C 14.292969 42.878906 14.277344 42.5625 14.265625 42.261719 C 14.25 41.640625 14.203125 41.039062 14.109375 40.421875 C 14.066406 40.171875 14.039062 39.902344 14.023438 39.632812 C 14.011719 39.011719 13.855469 38.417969 13.683594 37.835938 C 13.589844 37.539062 13.496094 37.257812 13.386719 36.960938 C 13.367188 36.882812 13.328125 36.789062 13.324219 36.707031 C 13.300781 36.234375 13.246094 35.742188 13.382812 35.273438 C 13.449219 35.015625 13.5 34.757812 13.585938 34.515625 C 13.808594 33.886719 13.871094 33.230469 13.984375 32.589844 C 14.070312 32.09375 13.859375 31.640625 13.519531 31.261719 C 13.335938 31.0625 13.078125 30.996094 12.808594 30.976562 C 12.390625 30.933594 12.003906 31.175781 11.863281 31.53125 C 11.792969 31.695312 11.738281 31.855469 11.699219 32.03125 C 11.644531 32.242188 11.609375 32.464844 11.554688 32.675781 C 11.527344 32.773438 11.449219 32.824219 11.351562 32.796875 C 11.320312 32.78125 11.273438 32.769531 11.238281 32.738281 C 10.832031 32.203125 10.625 31.574219 10.421875 30.964844 C 10.273438 30.511719 10.183594 30.023438 10.019531 29.570312 C 9.800781 28.992188 9.628906 28.410156 9.535156 27.796875 C 9.484375 27.449219 9.390625 27.105469 9.308594 26.773438 C 9.132812 26.050781 8.984375 25.328125 8.886719 24.582031 C 8.761719 23.667969 8.558594 22.769531 8.261719 21.894531 C 8.113281 21.441406 7.960938 20.988281 7.859375 20.5 C 7.796875 20.183594 7.78125 19.898438 7.894531 19.589844 C 8.019531 19.234375 7.941406 18.90625 7.765625 18.578125 C 7.746094 18.53125 7.730469 18.5 7.695312 18.472656 C 7.421875 18.070312 7.289062 17.601562 7.167969 17.128906 C 7.113281 16.910156 7.085938 16.703125 7.027344 16.484375 C 6.890625 15.933594 6.71875 15.386719 6.472656 14.871094 C 6.152344 14.203125 5.878906 13.503906 5.53125 12.851562 C 5.25 12.308594 5.015625 11.730469 4.890625 11.132812 C 4.65625 9.9375 4.34375 8.742188 4.28125 7.503906 C 4.269531 7.234375 4.242188 6.980469 4.210938 6.714844 C 4.121094 6.144531 4.109375 5.574219 4.082031 5 C 4.058594 4.558594 4.054688 4.128906 4.015625 3.683594 C 3.992188 3.464844 3.917969 3.261719 3.84375 3.058594 C 3.824219 2.980469 3.742188 2.917969 3.675781 2.859375 C 3.609375 2.796875 3.511719 2.769531 3.433594 2.824219 C 3.355469 2.859375 3.296875 2.925781 3.25 2.992188 C 3.207031 3.054688 3.195312 3.152344 3.199219 3.246094 C 3.195312 3.46875 3.207031 3.691406 3.199219 3.898438 C 3.242188 5.042969 3.4375 6.164062 3.445312 7.308594 C 3.449219 7.386719 3.453125 7.480469 3.476562 7.574219 C 3.617188 8.492188 3.753906 9.390625 3.910156 10.304688 C 4.074219 11.347656 4.390625 12.351562 4.898438 13.296875 C 5.355469 14.148438 5.714844 15.035156 6.0625 15.941406 C 6.191406 16.269531 6.285156 16.597656 6.382812 16.945312 C 6.402344 17.023438 6.390625 17.121094 6.378906 17.199219 C 6.351562 17.296875 6.257812 17.347656 6.175781 17.304688 C 6.09375 17.277344 6.011719 17.21875 5.976562 17.15625 C 5.824219 16.890625 5.683594 16.628906 5.527344 16.367188 C 5.214844 15.839844 4.738281 15.546875 4.121094 15.574219 C 3.820312 15.589844 3.5 15.605469 3.195312 15.558594 C 2.75 15.5 2.324219 15.601562 1.902344 15.746094 C 1.824219 15.785156 1.746094 15.820312 1.667969 15.871094 C 1.359375 16.058594 1.269531 16.511719 1.476562 16.800781 C 1.5625 16.910156 1.628906 17.015625 1.730469 17.09375 C 2.042969 17.347656 2.355469 17.570312 2.671875 17.824219 C 3.117188 18.183594 3.609375 18.464844 4.117188 18.742188 C 4.394531 18.886719 4.683594 18.984375 4.988281 19 C 5.164062 19.007812 5.335938 19.015625 5.511719 19.039062 C 5.6875 19.046875 5.863281 19.054688 6.039062 19.078125 C 6.425781 19.121094 6.6875 19.332031 6.863281 19.65625 C 6.96875 19.84375 7.042969 20.0625 7.117188 20.265625 C 7.523438 21.4375 7.742188 22.636719 7.957031 23.847656 C 8.160156 25.015625 8.40625 26.179688 8.683594 27.328125 C 9.019531 28.648438 9.324219 29.96875 9.703125 31.269531 C 9.933594 32.070312 10.257812 32.835938 10.753906 33.527344 C 11.078125 33.988281 11.339844 34.5 11.605469 35.011719 C 11.746094 35.289062 11.839844 35.574219 11.839844 35.890625 C 11.84375 36.015625 11.867188 36.160156 11.890625 36.285156 C 11.910156 36.363281 11.960938 36.441406 11.996094 36.519531 C 12.046875 36.597656 12.113281 36.65625 12.179688 36.699219 C 12.511719 36.953125 12.699219 37.28125 12.832031 37.671875 C 12.964844 38.09375 13.078125 38.5 13.132812 38.945312 C 13.214844 39.640625 13.3125 40.335938 13.441406 41.027344 C 13.566406 41.644531 13.59375 42.246094 13.609375 42.867188 C 13.617188 43.308594 13.621094 43.738281 13.625 44.183594 C 13.628906 44.882812 13.648438 45.582031 13.761719 46.277344 C 13.804688 46.578125 13.855469 46.894531 13.789062 47.199219 C 13.773438 47.230469 13.761719 47.277344 13.714844 47.296875 C 13.621094 47.351562 13.542969 47.335938 13.472656 47.246094 C 13.183594 46.863281 12.925781 46.445312 12.621094 46.078125 C 12.113281 45.449219 11.457031 45.007812 10.652344 44.855469 C 10.523438 44.828125 10.398438 44.820312 10.269531 44.808594 C 10.140625 44.800781 10 44.824219 9.875 44.84375 C 9.558594 44.890625 9.316406 45.15625 9.316406 45.476562 C 9.316406 45.777344 9.347656 46.09375 9.359375 46.394531 C 9.382812 46.855469 9.578125 47.230469 9.894531 47.5625 C 10.097656 47.792969 10.328125 48.003906 10.589844 48.148438 C 11.050781 48.414062 11.523438 48.644531 12.023438 48.8125 C 12.394531 48.9375 12.78125 49.042969 13.152344 49.167969 C 13.507812 49.28125 13.742188 49.523438 13.886719 49.882812 C 13.945312 50.054688 14.015625 50.210938 14.054688 50.382812 C 14.210938 50.929688 14.363281 51.480469 14.484375 52.03125 C 14.625 52.628906 14.796875 53.222656 14.96875 53.804688 C 15.140625 54.351562 15.277344 54.902344 15.417969 55.453125 C 15.476562 55.703125 15.535156 55.972656 15.550781 56.226562 C 15.566406 56.925781 15.710938 57.617188 15.792969 58.3125 C 15.929688 59.433594 16.359375 60.417969 17.070312 61.289062 C 17.761719 62.144531 18.472656 62.96875 19.226562 63.773438 C 19.828125 64.414062 20.507812 64.96875 21.277344 65.410156 C 22.191406 65.921875 23.050781 66.546875 23.890625 67.175781 C 24.421875 67.5625 24.933594 67.980469 25.28125 68.554688 C 25.382812 68.738281 25.597656 68.855469 25.820312 68.910156 C 25.949219 68.933594 26.078125 68.976562 26.207031 68.984375 C 26.480469 69.019531 26.707031 69.136719 26.921875 69.285156 C 27.285156 69.539062 27.601562 69.824219 27.917969 70.140625 C 28.4375 70.671875 28.957031 71.222656 29.476562 71.753906 C 30.027344 72.3125 30.550781 72.910156 30.996094 73.554688 C 31.386719 74.125 31.828125 74.675781 32.328125 75.175781 C 32.746094 75.570312 33.101562 76.011719 33.441406 76.472656 C 33.664062 76.75 33.867188 77.023438 34.117188 77.28125 C 34.722656 77.921875 35.355469 78.527344 35.976562 79.148438 C 36.535156 79.566406 37.097656 79.984375 37.65625 80.402344 C 37.691406 80.433594 37.726562 80.460938 37.757812 80.476562 C 38.070312 80.730469 38.414062 80.90625 38.773438 81.078125 C 39.878906 81.597656 41 82.101562 42.207031 82.375 C 42.417969 82.429688 42.625 82.496094 42.835938 82.566406 C 42.964844 82.609375 43.09375 82.632812 43.222656 82.644531 C 43.300781 82.65625 43.398438 82.652344 43.476562 82.617188 C 43.570312 82.59375 43.613281 82.511719 43.640625 82.433594 C 43.667969 82.335938 43.648438 82.257812 43.582031 82.195312 C 43.449219 82.078125 43.300781 81.988281 43.125 81.964844 C 42.5625 81.863281 42.015625 81.714844 41.480469 81.503906 C 40.832031 81.25 40.183594 80.980469 39.550781 80.691406 C 38.753906 80.332031 38 79.878906 37.335938 79.304688 C 37.101562 79.109375 36.855469 78.929688 36.605469 78.734375 C 36.324219 78.527344 36.074219 78.285156 35.839844 78.027344 C 35.503906 77.628906 35.132812 77.25 34.71875 76.902344 C 34.453125 76.679688 34.21875 76.417969 34.015625 76.128906 C 33.859375 75.910156 33.691406 75.714844 33.539062 75.5 C 33.214844 75.019531 32.859375 74.59375 32.457031 74.183594 C 32.089844 73.804688 31.75 73.40625 31.472656 72.941406 C 31.179688 72.449219 30.808594 72.019531 30.40625 71.613281 C 29.738281 70.929688 29.066406 70.230469 28.382812 69.546875 C 28.199219 69.367188 28 69.199219 27.785156 69.035156 C 27.617188 68.902344 27.421875 68.78125 27.257812 68.648438 C 26.875 68.347656 26.539062 68 26.28125 67.597656 C 26.214844 67.488281 26.175781 67.347656 26.199219 67.21875 C 26.253906 67.011719 26.308594 66.800781 26.359375 66.59375 C 26.496094 66.078125 26.644531 65.578125 26.761719 65.0625 C 26.804688 64.902344 26.824219 64.707031 26.816406 64.535156 C 26.796875 64.089844 26.679688 63.667969 26.453125 63.296875 C 26.335938 63.109375 26.199219 62.941406 26.015625 62.808594 C 25.769531 62.628906 25.492188 62.5 25.1875 62.417969 C 25.140625 62.40625 25.105469 62.40625 25.058594 62.394531 C 24.625 62.320312 24.039062 62.664062 23.898438 63.085938 C 23.859375 63.214844 23.863281 63.34375 23.855469 63.46875 C 23.859375 63.550781 23.878906 63.644531 23.898438 63.722656 C 24.171875 64.457031 24.324219 65.246094 24.566406 65.996094 C 24.65625 66.230469 24.6875 66.5 24.730469 66.75 Z M 5.183594 18.132812 C 4.78125 18.074219 4.441406 17.898438 4.125 17.660156 C 3.714844 17.34375 3.316406 17.015625 2.949219 16.652344 C 2.929688 16.621094 2.914062 16.574219 2.925781 16.523438 C 2.941406 16.492188 2.984375 16.441406 3 16.441406 C 3.253906 16.429688 3.523438 16.414062 3.78125 16.417969 C 4.050781 16.421875 4.28125 16.570312 4.449219 16.769531 C 4.53125 16.859375 4.617188 16.96875 4.6875 17.074219 C 4.894531 17.414062 5.070312 17.773438 5.183594 18.132812 Z M 12.566406 47.863281 C 12.519531 47.945312 12.429688 47.980469 12.332031 47.953125 C 11.800781 47.867188 11.34375 47.636719 10.917969 47.339844 C 10.605469 47.097656 10.382812 46.777344 10.21875 46.417969 C 10.203125 46.386719 10.199219 46.339844 10.199219 46.292969 C 10.160156 46.117188 10.292969 45.9375 10.449219 45.914062 C 10.671875 45.886719 10.878906 45.910156 11.074219 46.011719 C 11.191406 46.070312 11.304688 46.144531 11.402344 46.21875 C 11.816406 46.546875 12.152344 46.929688 12.414062 47.375 C 12.484375 47.484375 12.519531 47.609375 12.558594 47.71875 C 12.59375 47.78125 12.59375 47.828125 12.566406 47.863281 Z M 25.746094 65.714844 C 25.730469 65.75 25.667969 65.765625 25.636719 65.769531 C 25.605469 65.769531 25.539062 65.742188 25.523438 65.710938 C 25.472656 65.632812 25.421875 65.574219 25.398438 65.476562 C 25.242188 64.851562 25.097656 64.203125 24.957031 63.574219 C 24.9375 63.480469 24.964844 63.398438 25.039062 63.332031 C 25.101562 63.28125 25.195312 63.261719 25.277344 63.289062 C 25.359375 63.316406 25.441406 63.359375 25.507812 63.421875 C 25.855469 63.722656 26.015625 64.113281 26.027344 64.636719 C 25.996094 64.988281 25.96875 65.371094 25.746094 65.714844 Z M 12.539062 32.308594 C 12.582031 32.226562 12.644531 32.175781 12.738281 32.15625 C 12.847656 32.136719 13.011719 32.238281 13.050781 32.347656 C 13.070312 32.425781 13.105469 32.519531 13.109375 32.601562 C 13.105469 33.171875 12.957031 33.71875 12.742188 34.238281 C 12.730469 34.273438 12.683594 34.304688 12.652344 34.308594 C 12.574219 34.328125 12.492188 34.300781 12.457031 34.207031 C 12.332031 33.925781 12.285156 33.625 12.300781 33.324219 C 12.285156 32.972656 12.394531 32.632812 12.539062 32.308594 Z M 12.539062 32.308594 " fill-opacity="1" fill-rule="nonzero"/></g></g></g></g></g></g></g><g fill="#fcfbf9" fill-opacity="1"><g transform="translate(90.716741, 162.598652)"><g><path d="M 0.5625 -1.703125 L -11.71875 -5.734375 C -11.664062 -5.898438 -11.59375 -6.132812 -11.5 -6.4375 C -11.40625 -6.75 -11.300781 -7.070312 -11.1875 -7.40625 C -11.070312 -7.75 -10.960938 -8.082031 -10.859375 -8.40625 C -10.765625 -8.738281 -10.679688 -9.015625 -10.609375 -9.234375 C -10.316406 -10.128906 -9.957031 -10.84375 -9.53125 -11.375 C -9.101562 -11.90625 -8.644531 -12.296875 -8.15625 -12.546875 C -7.675781 -12.796875 -7.171875 -12.921875 -6.640625 -12.921875 C -6.109375 -12.929688 -5.59375 -12.859375 -5.09375 -12.703125 C -4.570312 -12.523438 -4.097656 -12.257812 -3.671875 -11.90625 C -3.253906 -11.5625 -2.925781 -11.132812 -2.6875 -10.625 C -2.445312 -10.125 -2.304688 -9.5625 -2.265625 -8.9375 C -2.234375 -8.3125 -2.34375 -7.628906 -2.59375 -6.890625 C -2.65625 -6.703125 -2.738281 -6.457031 -2.84375 -6.15625 C -2.945312 -5.851562 -3.054688 -5.570312 -3.171875 -5.3125 L 1.265625 -3.859375 Z M -8.515625 -8.78125 C -8.585938 -8.550781 -8.664062 -8.304688 -8.75 -8.046875 C -8.832031 -7.796875 -8.914062 -7.519531 -9 -7.21875 L -5.21875 -5.984375 C -5.113281 -6.242188 -5.007812 -6.492188 -4.90625 -6.734375 C -4.8125 -6.984375 -4.722656 -7.234375 -4.640625 -7.484375 C -4.535156 -7.785156 -4.472656 -8.09375 -4.453125 -8.40625 C -4.429688 -8.71875 -4.46875 -9 -4.5625 -9.25 C -4.664062 -9.5 -4.820312 -9.722656 -5.03125 -9.921875 C -5.25 -10.128906 -5.53125 -10.289062 -5.875 -10.40625 C -6.507812 -10.613281 -7.046875 -10.578125 -7.484375 -10.296875 C -7.921875 -10.015625 -8.265625 -9.507812 -8.515625 -8.78125 Z M -8.515625 -8.78125 "/></g></g></g><g fill="#fcfbf9" fill-opacity="1"><g transform="translate(97.334468, 144.828319)"><g><path d="M -10.453125 -7.8125 L -6.84375 -14.34375 L -4.984375 -13.3125 L -7.5 -8.765625 L -4.6875 -7.21875 L -2.4375 -11.28125 L -0.59375 -10.265625 L -2.84375 -6.203125 L 0.09375 -4.59375 L 2.703125 -9.3125 L 4.5625 -8.28125 L 0.859375 -1.578125 Z M -10.453125 -7.8125 "/></g></g></g><g fill="#fcfbf9" fill-opacity="1"><g transform="translate(106.605591, 129.127881)"><g><path d="M -4.375 -4.828125 C -5.082031 -5.429688 -5.640625 -6.125 -6.046875 -6.90625 C -6.453125 -7.6875 -6.6875 -8.492188 -6.75 -9.328125 C -6.820312 -10.160156 -6.71875 -11 -6.4375 -11.84375 C -6.164062 -12.695312 -5.707031 -13.503906 -5.0625 -14.265625 C -4.4375 -14.992188 -3.734375 -15.566406 -2.953125 -15.984375 C -2.171875 -16.398438 -1.367188 -16.644531 -0.546875 -16.71875 C 0.273438 -16.800781 1.109375 -16.707031 1.953125 -16.4375 C 2.804688 -16.164062 3.613281 -15.703125 4.375 -15.046875 C 5.113281 -14.410156 5.675781 -13.695312 6.0625 -12.90625 C 6.457031 -12.125 6.6875 -11.3125 6.75 -10.46875 C 6.8125 -9.632812 6.703125 -8.796875 6.421875 -7.953125 C 6.140625 -7.117188 5.6875 -6.335938 5.0625 -5.609375 C 4.4375 -4.878906 3.738281 -4.304688 2.96875 -3.890625 C 2.195312 -3.472656 1.394531 -3.222656 0.5625 -3.140625 C -0.269531 -3.054688 -1.109375 -3.148438 -1.953125 -3.421875 C -2.804688 -3.703125 -3.613281 -4.171875 -4.375 -4.828125 Z M -2.796875 -6.65625 C -2.304688 -6.226562 -1.773438 -5.914062 -1.203125 -5.71875 C -0.640625 -5.53125 -0.0820312 -5.453125 0.46875 -5.484375 C 1.03125 -5.523438 1.566406 -5.671875 2.078125 -5.921875 C 2.597656 -6.171875 3.054688 -6.523438 3.453125 -6.984375 C 3.890625 -7.492188 4.191406 -8.03125 4.359375 -8.59375 C 4.523438 -9.15625 4.578125 -9.707031 4.515625 -10.25 C 4.453125 -10.800781 4.273438 -11.332031 3.984375 -11.84375 C 3.703125 -12.351562 3.316406 -12.816406 2.828125 -13.234375 C 2.328125 -13.660156 1.789062 -13.96875 1.21875 -14.15625 C 0.644531 -14.351562 0.078125 -14.429688 -0.484375 -14.390625 C -1.046875 -14.359375 -1.582031 -14.210938 -2.09375 -13.953125 C -2.601562 -13.703125 -3.054688 -13.347656 -3.453125 -12.890625 C -3.847656 -12.421875 -4.132812 -11.910156 -4.3125 -11.359375 C -4.488281 -10.816406 -4.550781 -10.265625 -4.5 -9.703125 C -4.445312 -9.148438 -4.273438 -8.609375 -3.984375 -8.078125 C -3.691406 -7.554688 -3.296875 -7.082031 -2.796875 -6.65625 Z M -2.796875 -6.65625 "/></g></g></g><g fill="#fcfbf9" fill-opacity="1"><g transform="translate(121.987061, 112.503311)"><g><path d="M 8.84375 -6.5625 L -2.203125 -9.515625 L 3.140625 -2.328125 L 1.4375 -1.078125 L -6.265625 -11.453125 L -4.8125 -12.515625 L 6.25 -9.53125 L 0.890625 -16.75 L 2.59375 -18.03125 L 10.296875 -7.65625 Z M 8.84375 -6.5625 "/></g></g></g><g fill="#fcfbf9" fill-opacity="1"><g transform="translate(140.354662, 100.030357)"><g><path d="M 4.03125 -7.78125 L 6.28125 -2.890625 L 4.234375 -1.953125 L 1.984375 -6.84375 L -5.328125 -11.78125 L -2.984375 -12.859375 L 2.203125 -9.296875 L 2.828125 -15.53125 L 5.046875 -16.546875 Z M 4.03125 -7.78125 "/></g></g></g><g fill="#fcfbf9" fill-opacity="1"><g transform="translate(158.315171, 92.747373)"><g/></g></g><g fill="#fcfbf9" fill-opacity="1"><g transform="translate(169.611196, 89.780534)"><g><path d="M 9.3125 -6.578125 L 3.4375 -5.921875 L 4.03125 -0.4375 L 1.78125 -0.203125 L 0.375 -13.046875 L 2.625 -13.28125 L 3.203125 -8.03125 L 9.078125 -8.6875 L 8.5 -13.9375 L 10.734375 -14.171875 L 12.140625 -1.328125 L 9.90625 -1.09375 Z M 9.3125 -6.578125 "/></g></g></g><g fill="#fcfbf9" fill-opacity="1"><g transform="translate(191.112725, 88.201055)"><g><path d="M 1.546875 -6.3125 C 1.648438 -7.25 1.90625 -8.101562 2.3125 -8.875 C 2.726562 -9.644531 3.265625 -10.289062 3.921875 -10.8125 C 4.578125 -11.34375 5.332031 -11.734375 6.1875 -11.984375 C 7.050781 -12.242188 7.976562 -12.316406 8.96875 -12.203125 C 9.914062 -12.097656 10.78125 -11.835938 11.5625 -11.421875 C 12.34375 -11.003906 13 -10.472656 13.53125 -9.828125 C 14.0625 -9.191406 14.453125 -8.445312 14.703125 -7.59375 C 14.953125 -6.75 15.019531 -5.820312 14.90625 -4.8125 C 14.800781 -3.90625 14.550781 -3.082031 14.15625 -2.34375 C 13.769531 -1.601562 13.265625 -0.96875 12.640625 -0.4375 L 14 1.578125 L 11.375 1.28125 L 10.921875 0.609375 C 9.890625 1.035156 8.742188 1.179688 7.484375 1.046875 C 6.535156 0.941406 5.671875 0.6875 4.890625 0.28125 C 4.109375 -0.125 3.445312 -0.648438 2.90625 -1.296875 C 2.375 -1.941406 1.984375 -2.691406 1.734375 -3.546875 C 1.492188 -4.398438 1.429688 -5.320312 1.546875 -6.3125 Z M 3.9375 -6.046875 C 3.863281 -5.410156 3.898438 -4.800781 4.046875 -4.21875 C 4.203125 -3.632812 4.453125 -3.125 4.796875 -2.6875 C 5.148438 -2.25 5.570312 -1.882812 6.0625 -1.59375 C 6.5625 -1.3125 7.113281 -1.132812 7.71875 -1.0625 C 8.40625 -0.988281 9.0625 -1.050781 9.6875 -1.25 L 8.75 -2.640625 L 10.359375 -3.796875 L 11.359375 -2.328125 C 11.671875 -2.679688 11.925781 -3.09375 12.125 -3.5625 C 12.332031 -4.03125 12.46875 -4.535156 12.53125 -5.078125 C 12.601562 -5.742188 12.5625 -6.367188 12.40625 -6.953125 C 12.25 -7.535156 11.992188 -8.046875 11.640625 -8.484375 C 11.296875 -8.921875 10.875 -9.28125 10.375 -9.5625 C 9.875 -9.851562 9.320312 -10.03125 8.71875 -10.09375 C 8.101562 -10.164062 7.519531 -10.117188 6.96875 -9.953125 C 6.425781 -9.785156 5.9375 -9.523438 5.5 -9.171875 C 5.070312 -8.816406 4.722656 -8.375 4.453125 -7.84375 C 4.179688 -7.3125 4.007812 -6.710938 3.9375 -6.046875 Z M 3.9375 -6.046875 "/></g></g></g><g fill="#fcfbf9" fill-opacity="1"><g transform="translate(213.625482, 91.880501)"><g/></g></g><g fill="#fcfbf9" fill-opacity="1"><g transform="translate(224.77657, 95.430124)"><g><path d="M 7.171875 -10.90625 L 9.21875 -9.921875 L 6.59375 -4.390625 L 13.8125 -7.75 L 16.28125 -6.5625 L 8.890625 -3.421875 L 11.03125 5.25 L 8.4375 4.015625 L 6.53125 -4.265625 L 3.671875 1.75 L 1.625 0.765625 Z M 7.171875 -10.90625 "/></g></g></g><g fill="#fcfbf9" fill-opacity="1"><g transform="translate(242.518198, 104.766036)"><g><path d="M 9.125 -9.34375 L 15.125 -4.90625 L 13.859375 -3.1875 L 9.671875 -6.28125 L 7.765625 -3.6875 L 11.5 -0.9375 L 10.25 0.75 L 6.515625 -2 L 4.53125 0.703125 L 8.875 3.90625 L 7.609375 5.609375 L 1.453125 1.0625 Z M 9.125 -9.34375 "/></g></g></g><g fill="#fcfbf9" fill-opacity="1"><g transform="translate(256.856512, 116.038076)"><g><path d="M 7.375 8.1875 L 9.265625 -3.09375 L 2.609375 2.90625 L 1.203125 1.328125 L 10.796875 -7.328125 L 12 -5.984375 L 10.09375 5.3125 L 16.765625 -0.703125 L 18.1875 0.875 L 8.59375 9.53125 Z M 7.375 8.1875 "/></g></g></g><g fill="#fcfbf9" fill-opacity="1"><g transform="translate(271.005298, 133.148347)"><g><path d="M 8.140625 3.28125 L 3.484375 5.984375 L 2.34375 4.03125 L 7 1.328125 L 11.21875 -6.40625 L 12.515625 -4.171875 L 9.453125 1.3125 L 15.71875 1.34375 L 16.953125 3.46875 Z M 8.140625 3.28125 "/></g></g></g><g fill="#fcfbf9" fill-opacity="1"><g transform="translate(280.073096, 150.108176)"><g><path d="M 14.0625 1.140625 L 14.6875 3.015625 L 4.1875 12.359375 L 3.40625 10.0625 L 6.09375 7.734375 L 4.328125 2.5 L 0.78125 2.296875 L 0.046875 0.125 Z M 6.625 2.640625 L 7.84375 6.25 L 11.578125 2.984375 Z M 6.625 2.640625 "/></g></g></g><g fill="#fcfbf9" fill-opacity="1"><g transform="translate(139.000375, 282.04594)"><g><path d="M 1.6875 1.21875 C 1.53125 1.457031 1.351562 1.664062 1.15625 1.84375 C 0.957031 2.019531 0.742188 2.148438 0.515625 2.234375 C 0.285156 2.328125 0.046875 2.367188 -0.203125 2.359375 C -0.460938 2.347656 -0.738281 2.273438 -1.03125 2.140625 C -1.257812 2.023438 -1.457031 1.890625 -1.625 1.734375 C -1.800781 1.585938 -1.925781 1.429688 -2 1.265625 L -1.078125 0.5625 C -1.015625 0.65625 -0.945312 0.738281 -0.875 0.8125 C -0.800781 0.882812 -0.707031 0.945312 -0.59375 1 C -0.363281 1.113281 -0.15625 1.125 0.03125 1.03125 C 0.226562 0.9375 0.40625 0.78125 0.5625 0.5625 L 3.75 -3.921875 L 4.953125 -3.359375 Z M 4.78125 -5.625 C 4.882812 -5.84375 5.03125 -5.972656 5.21875 -6.015625 C 5.40625 -6.066406 5.597656 -6.046875 5.796875 -5.953125 C 5.972656 -5.867188 6.109375 -5.734375 6.203125 -5.546875 C 6.296875 -5.367188 6.289062 -5.171875 6.1875 -4.953125 C 6.070312 -4.703125 5.910156 -4.546875 5.703125 -4.484375 C 5.492188 -4.429688 5.300781 -4.445312 5.125 -4.53125 C 4.925781 -4.625 4.789062 -4.765625 4.71875 -4.953125 C 4.644531 -5.148438 4.664062 -5.375 4.78125 -5.625 Z M 4.78125 -5.625 "/></g></g></g><g fill="#fcfbf9" fill-opacity="1"><g transform="translate(148.316878, 286.135758)"><g><path d="M 5.140625 0.953125 C 4.804688 1.109375 4.429688 1.210938 4.015625 1.265625 C 3.609375 1.316406 3.175781 1.265625 2.71875 1.109375 C 2.363281 0.984375 2.070312 0.820312 1.84375 0.625 C 1.625 0.4375 1.457031 0.222656 1.34375 -0.015625 C 1.226562 -0.253906 1.164062 -0.507812 1.15625 -0.78125 C 1.15625 -1.050781 1.207031 -1.328125 1.3125 -1.609375 C 1.445312 -2.003906 1.648438 -2.367188 1.921875 -2.703125 C 2.203125 -3.035156 2.523438 -3.300781 2.890625 -3.5 C 3.253906 -3.695312 3.648438 -3.816406 4.078125 -3.859375 C 4.515625 -3.910156 4.96875 -3.851562 5.4375 -3.6875 C 5.988281 -3.488281 6.359375 -3.226562 6.546875 -2.90625 C 6.742188 -2.59375 6.765625 -2.234375 6.609375 -1.828125 C 6.410156 -1.265625 5.953125 -0.929688 5.234375 -0.828125 C 4.523438 -0.734375 3.640625 -0.847656 2.578125 -1.171875 C 2.472656 -0.847656 2.488281 -0.578125 2.625 -0.359375 C 2.769531 -0.140625 3 0.0234375 3.3125 0.140625 C 3.582031 0.234375 3.851562 0.265625 4.125 0.234375 C 4.40625 0.203125 4.648438 0.148438 4.859375 0.078125 Z M 4.9375 -2.671875 C 4.738281 -2.734375 4.539062 -2.757812 4.34375 -2.75 C 4.144531 -2.75 3.957031 -2.710938 3.78125 -2.640625 C 3.613281 -2.566406 3.453125 -2.46875 3.296875 -2.34375 C 3.140625 -2.226562 3.007812 -2.085938 2.90625 -1.921875 C 3.601562 -1.734375 4.15625 -1.648438 4.5625 -1.671875 C 4.96875 -1.691406 5.210938 -1.816406 5.296875 -2.046875 C 5.347656 -2.191406 5.335938 -2.316406 5.265625 -2.421875 C 5.203125 -2.523438 5.09375 -2.609375 4.9375 -2.671875 Z M 4.9375 -2.671875 "/></g></g></g><g fill="#fcfbf9" fill-opacity="1"><g transform="translate(160.44586, 290.015476)"><g><path d="M 9.015625 -3.3125 C 8.859375 -2.832031 8.648438 -2.363281 8.390625 -1.90625 C 8.140625 -1.445312 7.859375 -1.019531 7.546875 -0.625 C 7.242188 -0.226562 6.914062 0.128906 6.5625 0.453125 C 6.21875 0.773438 5.867188 1.039062 5.515625 1.25 L 4.53125 1.03125 C 4.59375 0.570312 4.640625 0.140625 4.671875 -0.265625 C 4.710938 -0.671875 4.75 -1.0625 4.78125 -1.4375 C 4.46875 -1.019531 4.128906 -0.625 3.765625 -0.25 C 3.398438 0.113281 3.019531 0.40625 2.625 0.625 L 1.640625 0.40625 C 1.679688 -0.0390625 1.707031 -0.472656 1.71875 -0.890625 C 1.738281 -1.316406 1.75 -1.738281 1.75 -2.15625 C 1.757812 -2.582031 1.765625 -3.023438 1.765625 -3.484375 C 1.765625 -3.941406 1.753906 -4.410156 1.734375 -4.890625 L 3.125 -4.59375 C 3.144531 -3.957031 3.140625 -3.328125 3.109375 -2.703125 C 3.085938 -2.078125 3.039062 -1.507812 2.96875 -1 C 3.332031 -1.351562 3.648438 -1.726562 3.921875 -2.125 C 4.191406 -2.53125 4.421875 -2.945312 4.609375 -3.375 C 4.609375 -3.519531 4.597656 -3.664062 4.578125 -3.8125 C 4.566406 -3.96875 4.554688 -4.125 4.546875 -4.28125 L 5.9375 -3.984375 C 5.957031 -3.671875 5.960938 -3.351562 5.953125 -3.03125 C 5.953125 -2.707031 5.941406 -2.390625 5.921875 -2.078125 C 5.898438 -1.765625 5.875 -1.460938 5.84375 -1.171875 C 5.8125 -0.890625 5.773438 -0.632812 5.734375 -0.40625 C 6.222656 -0.851562 6.625 -1.363281 6.9375 -1.9375 C 7.257812 -2.519531 7.492188 -3.078125 7.640625 -3.609375 Z M 9.015625 -3.3125 "/></g></g></g><g fill="#fcfbf9" fill-opacity="1"><g transform="translate(175.157707, 292.677817)"><g><path d="M 5.234375 -0.359375 C 4.941406 -0.128906 4.597656 0.0625 4.203125 0.21875 C 3.816406 0.375 3.382812 0.429688 2.90625 0.390625 C 2.53125 0.347656 2.210938 0.265625 1.953125 0.140625 C 1.691406 0.015625 1.472656 -0.144531 1.296875 -0.34375 C 1.128906 -0.550781 1.007812 -0.785156 0.9375 -1.046875 C 0.875 -1.316406 0.851562 -1.597656 0.875 -1.890625 C 0.914062 -2.304688 1.023438 -2.707031 1.203125 -3.09375 C 1.378906 -3.488281 1.617188 -3.828125 1.921875 -4.109375 C 2.234375 -4.390625 2.59375 -4.601562 3 -4.75 C 3.40625 -4.90625 3.851562 -4.960938 4.34375 -4.921875 C 4.925781 -4.867188 5.351562 -4.710938 5.625 -4.453125 C 5.894531 -4.191406 6.003906 -3.84375 5.953125 -3.40625 C 5.898438 -2.8125 5.539062 -2.375 4.875 -2.09375 C 4.207031 -1.820312 3.3125 -1.71875 2.1875 -1.78125 C 2.175781 -1.4375 2.265625 -1.175781 2.453125 -1 C 2.648438 -0.832031 2.914062 -0.734375 3.25 -0.703125 C 3.53125 -0.679688 3.800781 -0.71875 4.0625 -0.8125 C 4.320312 -0.914062 4.546875 -1.023438 4.734375 -1.140625 Z M 4.109375 -3.8125 C 3.898438 -3.832031 3.703125 -3.8125 3.515625 -3.75 C 3.328125 -3.695312 3.15625 -3.613281 3 -3.5 C 2.851562 -3.382812 2.71875 -3.25 2.59375 -3.09375 C 2.476562 -2.9375 2.394531 -2.765625 2.34375 -2.578125 C 3.0625 -2.566406 3.613281 -2.625 4 -2.75 C 4.394531 -2.875 4.601562 -3.0625 4.625 -3.3125 C 4.632812 -3.457031 4.59375 -3.570312 4.5 -3.65625 C 4.40625 -3.738281 4.273438 -3.789062 4.109375 -3.8125 Z M 4.109375 -3.8125 "/></g></g></g><g fill="#fcfbf9" fill-opacity="1"><g transform="translate(187.810531, 293.359555)"><g><path d="M 1.859375 -8.046875 L 3.171875 -8.078125 L 2.171875 -1.84375 C 2.148438 -1.757812 2.140625 -1.707031 2.140625 -1.6875 C 2.117188 -1.320312 2.257812 -1.144531 2.5625 -1.15625 C 2.65625 -1.15625 2.757812 -1.171875 2.875 -1.203125 C 2.988281 -1.242188 3.082031 -1.289062 3.15625 -1.34375 L 3.328125 -0.296875 C 3.191406 -0.203125 3.003906 -0.117188 2.765625 -0.046875 C 2.535156 0.0234375 2.300781 0.0664062 2.0625 0.078125 C 1.695312 0.078125 1.410156 -0.00390625 1.203125 -0.171875 C 0.992188 -0.335938 0.867188 -0.597656 0.828125 -0.953125 C 0.796875 -1.203125 0.800781 -1.441406 0.84375 -1.671875 Z M 1.859375 -8.046875 "/></g></g></g><g fill="#fcfbf9" fill-opacity="1"><g transform="translate(198.301904, 292.836631)"><g><path d="M 1.078125 -8.1875 L 2.390625 -8.34375 L 1.984375 -2.046875 C 1.972656 -1.960938 1.96875 -1.910156 1.96875 -1.890625 C 1.976562 -1.523438 2.132812 -1.363281 2.4375 -1.40625 C 2.53125 -1.414062 2.628906 -1.441406 2.734375 -1.484375 C 2.847656 -1.535156 2.941406 -1.582031 3.015625 -1.625 L 3.28125 -0.609375 C 3.15625 -0.515625 2.976562 -0.414062 2.75 -0.3125 C 2.53125 -0.207031 2.300781 -0.144531 2.0625 -0.125 C 1.695312 -0.0820312 1.398438 -0.132812 1.171875 -0.28125 C 0.953125 -0.425781 0.804688 -0.675781 0.734375 -1.03125 C 0.679688 -1.269531 0.664062 -1.503906 0.6875 -1.734375 Z M 1.078125 -8.1875 "/></g></g></g><g fill="#fcfbf9" fill-opacity="1"><g transform="translate(208.7275, 291.330339)"><g><path d="M 4.875 -1.921875 C 4.675781 -1.609375 4.410156 -1.320312 4.078125 -1.0625 C 3.753906 -0.800781 3.363281 -0.617188 2.90625 -0.515625 C 2.53125 -0.429688 2.195312 -0.410156 1.90625 -0.453125 C 1.613281 -0.492188 1.359375 -0.585938 1.140625 -0.734375 C 0.921875 -0.878906 0.734375 -1.066406 0.578125 -1.296875 C 0.429688 -1.523438 0.328125 -1.78125 0.265625 -2.0625 C 0.171875 -2.476562 0.148438 -2.894531 0.203125 -3.3125 C 0.253906 -3.738281 0.382812 -4.128906 0.59375 -4.484375 C 0.800781 -4.847656 1.078125 -5.164062 1.421875 -5.4375 C 1.765625 -5.707031 2.175781 -5.894531 2.65625 -6 C 3.226562 -6.125 3.679688 -6.101562 4.015625 -5.9375 C 4.347656 -5.769531 4.554688 -5.472656 4.640625 -5.046875 C 4.765625 -4.460938 4.550781 -3.941406 4 -3.484375 C 3.457031 -3.023438 2.644531 -2.644531 1.5625 -2.34375 C 1.65625 -2.03125 1.816406 -1.816406 2.046875 -1.703125 C 2.273438 -1.597656 2.550781 -1.582031 2.875 -1.65625 C 3.15625 -1.71875 3.398438 -1.832031 3.609375 -2 C 3.828125 -2.164062 4.015625 -2.335938 4.171875 -2.515625 Z M 2.765625 -4.875 C 2.566406 -4.832031 2.382812 -4.753906 2.21875 -4.640625 C 2.0625 -4.523438 1.925781 -4.390625 1.8125 -4.234375 C 1.707031 -4.085938 1.625 -3.921875 1.5625 -3.734375 C 1.5 -3.546875 1.460938 -3.359375 1.453125 -3.171875 C 2.140625 -3.378906 2.648438 -3.597656 2.984375 -3.828125 C 3.316406 -4.066406 3.457031 -4.304688 3.40625 -4.546875 C 3.375 -4.691406 3.300781 -4.789062 3.1875 -4.84375 C 3.070312 -4.90625 2.929688 -4.914062 2.765625 -4.875 Z M 2.765625 -4.875 "/></g></g></g><g fill="#fcfbf9" fill-opacity="1"><g transform="translate(221.007487, 288.165113)"><g><path d="M -0.203125 -5.375 L 1.03125 -5.796875 L 1.1875 -4.6875 C 1.238281 -4.851562 1.296875 -5.023438 1.359375 -5.203125 C 1.421875 -5.390625 1.5 -5.554688 1.59375 -5.703125 C 1.695312 -5.859375 1.8125 -5.992188 1.9375 -6.109375 C 2.0625 -6.234375 2.21875 -6.328125 2.40625 -6.390625 C 2.53125 -6.429688 2.640625 -6.445312 2.734375 -6.4375 C 2.835938 -6.4375 2.921875 -6.4375 2.984375 -6.4375 L 2.75 -5.09375 C 2.613281 -5.125 2.476562 -5.113281 2.34375 -5.0625 C 2.195312 -5.007812 2.066406 -4.898438 1.953125 -4.734375 C 1.847656 -4.578125 1.765625 -4.390625 1.703125 -4.171875 C 1.640625 -3.953125 1.585938 -3.722656 1.546875 -3.484375 C 1.515625 -3.242188 1.5 -3.019531 1.5 -2.8125 L 1.84375 -0.625 L 0.625 -0.21875 Z M -0.203125 -5.375 "/></g></g></g><g fill="#fcfbf9" fill-opacity="1"><g transform="translate(231.54812, 284.210153)"><g><path d="M 2.78125 -6.96875 C 2.976562 -5.9375 3.125 -4.945312 3.21875 -4 C 3.3125 -3.050781 3.320312 -2.1875 3.25 -1.40625 C 3.175781 -0.632812 3.03125 0.0195312 2.8125 0.5625 C 2.59375 1.101562 2.273438 1.46875 1.859375 1.65625 C 1.640625 1.757812 1.429688 1.816406 1.234375 1.828125 C 1.046875 1.847656 0.863281 1.828125 0.6875 1.765625 L 0.796875 0.609375 C 0.890625 0.617188 0.984375 0.625 1.078125 0.625 C 1.171875 0.625 1.265625 0.601562 1.359375 0.5625 C 1.585938 0.457031 1.742188 0.265625 1.828125 -0.015625 C 1.910156 -0.296875 1.957031 -0.585938 1.96875 -0.890625 C 1.78125 -1.179688 1.539062 -1.492188 1.25 -1.828125 C 0.96875 -2.171875 0.664062 -2.515625 0.34375 -2.859375 C 0.0195312 -3.203125 -0.3125 -3.546875 -0.65625 -3.890625 C -1.007812 -4.234375 -1.363281 -4.5625 -1.71875 -4.875 L -0.375 -5.5 C -0.195312 -5.34375 0 -5.148438 0.21875 -4.921875 C 0.445312 -4.703125 0.671875 -4.460938 0.890625 -4.203125 C 1.117188 -3.953125 1.335938 -3.703125 1.546875 -3.453125 C 1.765625 -3.203125 1.957031 -2.96875 2.125 -2.75 C 2.113281 -3 2.09375 -3.273438 2.0625 -3.578125 C 2.03125 -3.878906 1.988281 -4.191406 1.9375 -4.515625 C 1.882812 -4.835938 1.820312 -5.15625 1.75 -5.46875 C 1.675781 -5.789062 1.597656 -6.09375 1.515625 -6.375 Z M 2.78125 -6.96875 "/></g></g></g><g clip-path="url(#2e92bfefa8)"><path fill="#f8dae2" d="M 154.394531 167.632812 C 150.539062 168.460938 147.398438 168.214844 145.007812 166.890625 C 140.90625 164.613281 139.175781 159.167969 139.867188 150.703125 C 140.546875 142.390625 143.421875 137.011719 148.414062 134.722656 C 153.609375 132.339844 160.90625 133.28125 170.109375 137.527344 C 176.925781 140.671875 182.304688 144.5625 182.359375 144.601562 L 182.546875 144.738281 L 182.476562 144.960938 C 180.726562 150.609375 183.78125 152.015625 183.914062 152.074219 L 185.847656 152.921875 L 183.75 152.695312 C 182.652344 152.574219 180.882812 153.296875 178.632812 154.78125 C 176.898438 155.929688 175.492188 157.128906 175.476562 157.140625 L 175.460938 157.15625 C 175.410156 157.195312 170.28125 160.992188 164.023438 164.074219 C 160.441406 165.835938 157.226562 167.023438 154.398438 167.636719 Z M 151.289062 134.453125 C 150.378906 134.648438 149.511719 134.929688 148.679688 135.3125 C 143.917969 137.496094 141.167969 142.691406 140.511719 150.753906 C 139.84375 158.945312 141.460938 164.183594 145.320312 166.324219 C 154.722656 171.535156 174.550781 157.019531 175.0625 156.640625 C 175.367188 156.382812 179.777344 152.648438 182.824219 152.097656 C 181.859375 151.222656 180.558594 149.183594 181.789062 144.992188 C 179.820312 143.605469 162.832031 131.972656 151.289062 134.453125 Z M 151.289062 134.453125 " fill-opacity="1" fill-rule="nonzero"/></g><g clip-path="url(#6d65d198fe)"><path fill="#f8dae2" d="M 226.792969 157.074219 C 223.382812 157.804688 218.96875 157.703125 213.585938 156.753906 C 206.714844 155.542969 200.730469 153.328125 200.671875 153.308594 L 200.648438 153.300781 C 200.582031 153.269531 193.980469 150.300781 191.460938 151.339844 L 189.441406 152.175781 L 191.136719 150.789062 C 191.136719 150.789062 191.804688 150.21875 192.066406 149.066406 C 192.414062 147.519531 191.878906 145.613281 190.523438 143.558594 L 190.394531 143.363281 L 190.539062 143.179688 C 190.578125 143.128906 194.65625 137.890625 200.320312 132.964844 C 207.96875 126.320312 214.714844 123.375 220.371094 124.210938 C 225.804688 125.015625 230.066406 129.375 233.039062 137.167969 C 236.070312 145.105469 235.933594 150.816406 232.628906 154.144531 C 231.222656 155.5625 229.269531 156.539062 226.792969 157.074219 Z M 200.910156 152.707031 C 201.503906 152.925781 224.601562 161.324219 232.171875 153.691406 C 235.28125 150.554688 235.371094 145.074219 232.4375 137.398438 C 229.554688 129.839844 225.464844 125.621094 220.277344 124.851562 C 213.480469 123.847656 205.910156 128.972656 200.753906 133.453125 C 195.726562 137.820312 191.957031 142.445312 191.191406 143.402344 C 193.546875 147.082031 192.871094 149.402344 192.1875 150.511719 C 195.261719 150.183594 200.542969 152.539062 200.910156 152.703125 Z M 200.910156 152.707031 " fill-opacity="1" fill-rule="nonzero"/></g><path fill="#f8dae2" d="M 221.398438 148.914062 C 219.101562 149.40625 216.292969 149.53125 212.976562 149.28125 C 207.96875 148.90625 203.601562 147.773438 203.558594 147.761719 L 203.535156 147.753906 C 203.480469 147.734375 198.046875 145.902344 192.613281 147.894531 L 192.390625 147.285156 C 197.96875 145.242188 203.363281 147.011719 203.734375 147.136719 C 204.257812 147.273438 220.953125 151.492188 226.410156 145.707031 C 228.34375 143.65625 228.644531 140.53125 227.304688 136.414062 C 226.695312 134.542969 225.558594 133.371094 223.824219 132.832031 C 214.617188 129.953125 192.667969 146.511719 192.449219 146.679688 L 192.058594 146.164062 C 192.113281 146.121094 197.699219 141.890625 204.375 138.082031 C 213.390625 132.933594 220 130.957031 224.015625 132.214844 C 225.9375 132.816406 227.25 134.160156 227.921875 136.214844 C 229.34375 140.574219 228.992188 143.917969 226.882812 146.152344 C 225.636719 147.476562 223.800781 148.398438 221.398438 148.917969 Z M 221.398438 148.914062 " fill-opacity="1" fill-rule="nonzero"/><path fill="#f8dae2" d="M 157.140625 158.710938 C 153.347656 159.527344 150.347656 159.308594 148.191406 158.054688 C 145.535156 156.511719 144.25 153.40625 144.371094 148.824219 C 144.429688 146.664062 145.308594 145 146.976562 143.878906 C 150.472656 141.53125 157.371094 141.546875 167.480469 143.921875 C 174.960938 145.679688 181.519531 148.148438 181.582031 148.175781 L 181.355469 148.78125 C 181.097656 148.679688 155.347656 139.039062 147.335938 144.417969 C 145.828125 145.429688 145.070312 146.878906 145.015625 148.84375 C 144.898438 153.171875 146.078125 156.082031 148.515625 157.496094 C 155.390625 161.496094 170.203125 152.703125 170.660156 152.425781 C 170.980469 152.199219 175.652344 148.972656 181.578125 149.34375 L 181.539062 149.988281 C 175.761719 149.625 171.074219 152.925781 171.027344 152.957031 L 171.003906 152.972656 C 170.964844 152.996094 167.105469 155.324219 162.40625 157.109375 C 160.507812 157.828125 158.75 158.363281 157.136719 158.710938 Z M 157.140625 158.710938 " fill-opacity="1" fill-rule="nonzero"/><path fill="#f8dae2" d="M 190.707031 143.691406 C 185.671875 142.277344 182.414062 145.074219 182.382812 145.105469 L 181.953125 144.617188 C 182.097656 144.492188 185.511719 141.558594 190.878906 143.070312 Z M 190.707031 143.691406 " fill-opacity="1" fill-rule="nonzero"/><path fill="#f8dae2" d="M 188.132812 152.730469 C 185.699219 153.253906 183.804688 152.714844 183.691406 152.679688 L 183.875 152.058594 C 183.910156 152.070312 187.585938 153.113281 191.164062 150.769531 L 191.515625 151.308594 C 190.351562 152.070312 189.191406 152.503906 188.132812 152.726562 Z M 188.132812 152.730469 " fill-opacity="1" fill-rule="nonzero"/><path fill="#f8dae2" d="M 232.660156 195.183594 L 232.28125 194.972656 C 232.25 194.957031 229.167969 193.265625 227.292969 193.667969 C 225.421875 194.070312 222.941406 195.628906 222.914062 195.644531 L 222.628906 195.828125 L 222.457031 195.53125 C 222.226562 195.121094 216.746094 185.386719 216.550781 181.183594 C 216.472656 179.589844 214.675781 177.707031 211.347656 175.742188 C 208.78125 174.226562 206.210938 173.203125 206.183594 173.195312 C 206.101562 173.160156 199.019531 169.972656 196.597656 162 C 194.261719 154.308594 190.511719 151.738281 190.476562 151.710938 L 190.832031 151.171875 C 190.875 151.199219 191.855469 151.859375 193.136719 153.507812 C 194.304688 155.011719 195.960938 157.675781 197.21875 161.8125 C 199.550781 169.492188 206.363281 172.566406 206.433594 172.597656 C 206.855469 172.765625 216.992188 176.816406 217.195312 181.152344 C 217.363281 184.808594 221.929688 193.238281 222.859375 194.921875 C 223.578125 194.484375 225.496094 193.394531 227.160156 193.035156 C 228.839844 192.675781 231.203125 193.710938 232.164062 194.1875 C 232.207031 193.308594 232.113281 191.125 230.636719 187.824219 C 229.84375 186.050781 229.144531 185.203125 228.464844 184.378906 C 227.402344 183.097656 226.402344 181.886719 225.269531 177.617188 C 224.285156 173.90625 220.109375 171.691406 215.273438 169.128906 C 211.402344 167.078125 207.019531 164.753906 203.871094 161.277344 C 198.296875 155.113281 197.078125 154.3125 194.414062 152.5625 C 193.785156 152.152344 193.074219 151.683594 192.210938 151.085938 L 192.582031 150.554688 C 193.4375 151.148438 194.144531 151.613281 194.769531 152.019531 C 197.480469 153.804688 198.722656 154.617188 204.351562 160.84375 C 207.421875 164.238281 211.753906 166.535156 215.574219 168.558594 C 220.546875 171.191406 224.839844 173.46875 225.898438 177.453125 C 226.996094 181.585938 227.953125 182.742188 228.964844 183.96875 C 229.671875 184.824219 230.402344 185.710938 231.230469 187.5625 C 233.28125 192.148438 232.78125 194.65625 232.757812 194.761719 L 232.667969 195.191406 Z M 232.660156 195.183594 " fill-opacity="1" fill-rule="nonzero"/><path fill="#f8dae2" d="M 152.394531 196.363281 L 152.109375 196.171875 C 152.085938 196.15625 149.699219 194.554688 147.773438 194.097656 C 145.910156 193.65625 142.792969 195.28125 142.761719 195.296875 L 142.375 195.496094 L 142.292969 195.070312 C 142.273438 194.964844 141.828125 192.445312 143.980469 187.902344 C 144.847656 186.070312 145.597656 185.203125 146.324219 184.363281 C 147.363281 183.15625 148.347656 182.023438 149.535156 177.914062 C 150.679688 173.953125 155.019531 171.773438 160.046875 169.25 C 163.914062 167.308594 168.296875 165.113281 171.4375 161.785156 C 177.113281 155.78125 178.15625 155.136719 180.671875 153.582031 C 181.3125 153.183594 182.039062 152.734375 182.96875 152.121094 L 183.324219 152.660156 C 182.386719 153.28125 181.65625 153.734375 181.011719 154.132812 C 178.546875 155.65625 177.527344 156.285156 171.910156 162.226562 C 168.6875 165.636719 164.253906 167.863281 160.339844 169.828125 C 155.445312 172.285156 151.222656 174.402344 150.152344 178.09375 C 148.929688 182.335938 147.898438 183.523438 146.8125 184.78125 C 146.117188 185.589844 145.394531 186.425781 144.5625 188.179688 C 143.015625 191.445312 142.871094 193.628906 142.894531 194.507812 C 143.867188 194.050781 146.253906 193.066406 147.925781 193.464844 C 149.578125 193.859375 151.472656 194.992188 152.183594 195.441406 C 153.148438 193.78125 157.898438 185.457031 158.148438 181.800781 C 158.445312 177.472656 168.671875 173.644531 169.109375 173.484375 C 169.167969 173.460938 176.046875 170.535156 178.546875 162.910156 C 181.136719 155.023438 185.230469 152.429688 185.40625 152.324219 L 185.742188 152.871094 C 185.703125 152.898438 181.667969 155.46875 179.160156 163.109375 C 176.5625 171.023438 169.414062 174.054688 169.34375 174.085938 C 169.304688 174.101562 166.703125 175.066406 164.105469 176.527344 C 160.738281 178.417969 158.902344 180.257812 158.792969 181.847656 C 158.503906 186.046875 152.8125 195.65625 152.570312 196.066406 L 152.394531 196.359375 Z M 152.394531 196.363281 " fill-opacity="1" fill-rule="nonzero"/><path fill="#f8dae2" d="M 167.09375 206.179688 L 166.679688 205.679688 C 179.714844 194.871094 185.199219 152.984375 185.25 152.558594 L 185.894531 152.640625 C 185.882812 152.746094 184.507812 163.375 181.523438 175.214844 C 177.511719 191.148438 172.65625 201.566406 167.09375 206.179688 Z M 167.09375 206.179688 " fill-opacity="1" fill-rule="nonzero"/><path fill="#f8dae2" d="M 172.246094 209.175781 L 171.671875 208.878906 C 185.132812 182.5 187.660156 152.722656 187.683594 152.425781 L 188.328125 152.476562 C 188.304688 152.777344 185.765625 182.679688 172.246094 209.175781 Z M 172.246094 209.175781 " fill-opacity="1" fill-rule="nonzero"/><path fill="#f8dae2" d="M 226.445312 223.539062 C 226.445312 223.539062 225.386719 220.675781 221.226562 216.976562 C 217.066406 213.273438 212.289062 215.121094 212.289062 215.121094 C 207.128906 217.773438 202.417969 216.359375 202.417969 216.359375 C 202.417969 216.359375 199.195312 215.730469 195.554688 217.835938 C 191.910156 219.941406 190.019531 224.316406 189.980469 230.277344 C 189.941406 236.238281 193.753906 242.695312 193.753906 242.695312 C 193.753906 242.695312 197.347656 249.320312 203.320312 250.457031 C 209.296875 251.59375 217.628906 248.785156 219.480469 248.164062 C 221.332031 247.546875 227.039062 244.367188 228.246094 237.035156 C 229.492188 229.492188 226.445312 223.539062 226.445312 223.539062 Z M 207.976562 245.125 C 207.976562 245.125 206.941406 246.449219 203.207031 245.488281 C 199.472656 244.527344 197.722656 239.632812 197.722656 239.632812 C 197.722656 239.632812 197.351562 238.882812 198.339844 238.398438 C 199.136719 238.007812 200.597656 239.675781 200.597656 239.675781 C 200.597656 239.675781 202.316406 242.738281 204.855469 243.097656 C 209.175781 243.714844 207.976562 245.125 207.976562 245.125 Z M 205.175781 222.027344 C 200.5 223.261719 199.46875 220.082031 201.621094 219.839844 C 201.621094 219.839844 204.613281 219.414062 205.636719 220.078125 C 205.636719 220.078125 207.886719 221.3125 205.175781 222.027344 Z M 210.636719 220.765625 C 207.941406 221.566406 207.746094 219.625 209.019531 219.351562 C 210.292969 219.078125 211.832031 218.101562 213.46875 217.289062 C 215.8125 216.125 216.128906 217.601562 216.128906 217.601562 C 216.65625 219.027344 213.332031 219.964844 210.636719 220.765625 Z M 224.957031 232.011719 C 222.328125 234.125 221.421875 229.910156 221.433594 228.945312 C 221.433594 228.945312 221.40625 227.800781 221.34375 227.5 C 221.253906 227.078125 220.769531 225.859375 222.546875 225.917969 C 223.644531 225.957031 224.367188 226.1875 225.285156 228.414062 C 226.207031 230.640625 224.957031 232.011719 224.957031 232.011719 Z M 224.957031 232.011719 " fill-opacity="1" fill-rule="nonzero"/><path fill="#f8dae2" d="M 178.195312 210.332031 C 178.195312 210.332031 175.378906 208.511719 173.480469 208.917969 C 171.152344 209.417969 169.589844 208.207031 169.589844 208.207031 C 169.589844 208.207031 166.542969 206.289062 165.03125 203.460938 C 163.554688 200.691406 157.820312 198.621094 154.296875 200.699219 C 154.296875 200.699219 149.679688 202.796875 146.25 208.382812 C 142.824219 213.96875 144.199219 221.390625 144.199219 221.390625 C 144.199219 221.390625 145.5625 230.796875 150.5625 234.570312 C 155.5625 238.34375 161.117188 239.574219 168.085938 239.175781 C 175.054688 238.78125 181.878906 228.492188 182.761719 222.351562 C 183.585938 216.609375 182.707031 212.886719 178.191406 210.328125 Z M 151.386719 215.65625 C 151.386719 215.65625 150.066406 217.921875 151.851562 221.84375 C 153.617188 225.730469 150.675781 224.84375 150.675781 224.84375 C 146.746094 221.941406 148.753906 214.898438 148.753906 214.898438 C 148.753906 214.898438 149.160156 213.707031 149.539062 213.40625 C 150.015625 213.023438 151.179688 212.832031 151.570312 213.628906 C 151.960938 214.429688 151.386719 215.652344 151.386719 215.652344 Z M 163.339844 211.980469 C 161.292969 210.660156 158.683594 205.707031 158.683594 205.707031 C 158.15625 204.28125 159.210938 204.054688 159.628906 203.960938 C 160.050781 203.867188 160.730469 203.945312 161.292969 204.601562 C 161.648438 205.015625 163.574219 207.960938 164.480469 209.089844 C 165.386719 210.21875 166.832031 210.789062 166.832031 210.789062 C 166.832031 210.789062 167.855469 211.449219 170.097656 211.628906 C 172.339844 211.808594 173.636719 213.730469 171.484375 213.976562 C 169.328125 214.21875 165.386719 213.304688 163.339844 211.980469 Z M 175.808594 223.847656 C 174.441406 225.6875 173.601562 224.855469 173.539062 224.558594 C 173.449219 224.132812 173.734375 223.414062 173.734375 223.414062 C 173.734375 223.414062 174.015625 222.691406 173.792969 221.636719 C 173.566406 220.582031 173.878906 219.1875 173.878906 219.1875 C 173.878906 219.1875 174.285156 217.785156 175.472656 218.1875 C 176.386719 218.5 176.589844 219.269531 176.589844 219.269531 C 176.589844 219.269531 177.175781 222.007812 175.808594 223.847656 Z M 175.808594 223.847656 " fill-opacity="1" fill-rule="nonzero"/><path fill="#f8dae2" d="M 209.964844 216.105469 L 209.320312 216.152344 C 207.773438 195.246094 202.660156 178.84375 198.640625 168.765625 C 194.285156 157.84375 190.242188 151.789062 190.199219 151.726562 L 190.738281 151.367188 C 190.777344 151.425781 194.851562 157.523438 199.230469 168.5 C 203.273438 178.625 208.414062 195.101562 209.964844 216.105469 Z M 209.964844 216.105469 " fill-opacity="1" fill-rule="nonzero"/><path fill="#f8dae2" d="M 206.90625 216.753906 L 206.261719 216.808594 C 204.527344 195.816406 199.582031 179.484375 195.742188 169.480469 C 191.578125 158.636719 187.773438 152.683594 187.734375 152.625 L 188.277344 152.273438 C 188.316406 152.332031 192.148438 158.328125 196.335938 169.222656 C 200.195312 179.269531 205.164062 195.671875 206.90625 216.75 Z M 206.90625 216.753906 " fill-opacity="1" fill-rule="nonzero"/></svg>